<?xml version="1.0" encoding="utf-8"?>
<!-- Generator: Adobe Illustrator 23.1.0, SVG Export Plug-In . SVG Version: 6.00 Build 0)  -->
<svg version="1.1" id="Layer_1" xmlns="http://www.w3.org/2000/svg" xmlns:xlink="http://www.w3.org/1999/xlink" x="0px" y="0px"
	 viewBox="0 0 72 72" style="enable-background:new 0 0 72 72;" xml:space="preserve">
<style type="text/css">
	.st0{display:none;}
	.st1{display:inline;fill:#050505;stroke:#000000;stroke-miterlimit:10;}
	.st2{display:inline;fill:none;stroke:#FFFFFF;stroke-width:2;stroke-miterlimit:10;}
	.st3{fill:#FFFFFF;}
</style>
<g class="st0">
	<rect x="-1.5" y="-0.5" class="st1" width="74" height="74"/>
</g>
<g id="Layer_5" class="st0">
	<polyline class="st2" points="12,21 12,14 63,14 63,55 12,55 12,47 	"/>
	<polygon class="st2" points="28,18.5 10.6,34.7 28,50.9 28,41 54,41 54,28 28,28 	"/>
</g>
<g id="Layer_3" class="st0">
	<path class="st2" d="M60.8,36.3c0-0.8,0-1.6-0.1-2.4l4.5-7.2l-5-9.5l-8.4-0.3c-2.1-1.7-4.4-3.2-6.9-4.2l-4.2-7.2L30,5.5l-4.2,7.2
		c-2.4,1-4.6,2.3-6.6,3.9L10.9,17l-5.2,9.4l4.4,7.3C10,34.6,10,35.4,10,36.3c0,0.8,0,1.7,0.1,2.5l-4.4,7.3l4.9,9.6l8.8,0.4
		c1.9,1.5,4,2.8,6.2,3.8l4.5,7.4l10.7,0.2l4.5-7.6c2.2-0.9,4.3-2.2,6.2-3.7l8.7-0.2l5.1-9.4L60.6,39C60.7,38.1,60.8,37.2,60.8,36.3z
		 M35.3,49.2c-7.1,0-12.9-5.8-12.9-12.9s5.8-12.9,12.9-12.9s12.9,5.8,12.9,12.9C48.2,43.4,42.5,49.2,35.3,49.2z"/>
	<path class="st2" d="M35.4,2"/>
</g>
<g id="Layer_4" class="st0">
	<circle class="st2" cx="35.4" cy="36.3" r="28.3"/>
	<circle class="st2" cx="35.4" cy="28.6" r="12.4"/>
	<path class="st2" d="M17.6,58.4c2.1-8.1,9.5-14.1,18.3-14.1c8.6,0,15.8,5.7,18.1,13.5"/>
</g>
<g>
	<path class="st3" d="M49.7,18.8l0.4,7.9h-0.9c-0.2-1.4-0.4-2.4-0.7-3c-0.5-1-1.2-1.7-2.1-2.1c-0.9-0.5-2-0.7-3.4-0.7h-4.8v25.8
		c0,2.1,0.2,3.4,0.7,3.9c0.6,0.7,1.6,1,2.9,1H43v0.9H28.7v-0.9h1.2c1.4,0,2.4-0.4,3-1.3c0.4-0.5,0.5-1.7,0.5-3.6V20.9h-4.1
		c-1.6,0-2.7,0.1-3.4,0.3c-0.9,0.3-1.6,0.9-2.2,1.8c-0.6,0.9-1,2.1-1.1,3.6h-0.9l0.4-7.9H49.7z"/>
</g>
</svg>
