<?xml version="1.0" encoding="utf-8"?>
<!-- Generator: Adobe Illustrator 23.1.0, SVG Export Plug-In . SVG Version: 6.00 Build 0)  -->
<svg version="1.1" id="Layer_1" xmlns="http://www.w3.org/2000/svg" xmlns:xlink="http://www.w3.org/1999/xlink" x="0px" y="0px"
	 viewBox="0 0 28 28" style="enable-background:new 0 0 28 28;" xml:space="preserve">
<style type="text/css">
	.st0{display:none;}
	.st1{display:inline;stroke:#FFFFFF;stroke-miterlimit:10;}
	.st2{fill:#F7F7F7;}
	.st3{fill:none;stroke:#F7F7F7;stroke-miterlimit:10;}
</style>
<g class="st0">
	<circle class="st1" cx="14" cy="-48" r="30"/>
</g>
<g>
	<path class="st2" d="M14.8,21.2L14.8,21.2c-2.7,0-4.8-2.2-4.8-4.8V6.7c0-2.7,2.2-4.8,4.8-4.8l0,0c2.7,0,4.8,2.2,4.8,4.8v9.7
		C19.6,19.1,17.5,21.2,14.8,21.2z"/>
	<path class="st3" d="M21.5,18.5c0,2.7-2.2,4.8-4.8,4.8H13c-2.7,0-4.8-2.2-4.8-4.8"/>
	<path class="st2" d="M19.6,22.3c1.3-0.6-0.6,1.3-2.4,3c-1,1-3.6,0.9-4.7-0.1c-1.7-1.7-3.6-2.9-3.6-2.9S13.9,24.9,19.6,22.3z"/>
</g>
</svg>
