<?xml version="1.0" encoding="utf-8"?>
<!-- Generator: Adobe Illustrator 23.1.0, SVG Export Plug-In . SVG Version: 6.00 Build 0)  -->
<svg version="1.1" xmlns="http://www.w3.org/2000/svg" xmlns:xlink="http://www.w3.org/1999/xlink" x="0px" y="0px"
	 viewBox="0 0 759.5 447.3" style="enable-background:new 0 0 759.5 447.3;" xml:space="preserve">
<style type="text/css">
	.st0{fill:none;stroke:#27AAE1;stroke-width:2;stroke-miterlimit:10; stroke-dasharray: 1500; stroke-dashoffset: 1500; animation: dash 10s linear forwards;}
	.st1{fill:none;stroke:#27AAE1;stroke-width:2;stroke-linecap:round;stroke-miterlimit:10; stroke-dasharray: 1500; stroke-dashoffset: 1500; animation: dash 10s linear forwards;}
	.st2{fill:none;stroke:#42BB94;stroke-width:2;stroke-linecap:round;stroke-miterlimit:10; stroke-dasharray: 1500; stroke-dashoffset: 1500; animation: dash 10s linear forwards;}
	.st3{fill:none;stroke:#A92829;stroke-width:2;stroke-miterlimit:10; stroke-dasharray: 1500; stroke-dashoffset: 1500; animation: dash 10s linear forwards;}
	.st4{fill:none;stroke:#448ECC;stroke-width:2;stroke-miterlimit:10; stroke-dasharray: 1500; stroke-dashoffset: 1500; animation: dash 10s linear forwards;}
	.st5{fill:none;stroke:#3D81C3;stroke-width:2;stroke-linecap:round;stroke-miterlimit:10; stroke-dasharray: 1500; stroke-dashoffset: 1500; animation: dash 10s linear forwards;}
	.st6{fill:none;stroke:#3D81C3;stroke-width:2;stroke-miterlimit:10; stroke-dasharray: 1500; stroke-dashoffset: 1500; animation: dash 10s linear forwards;}
	.st7{fill:none;stroke:#C43634;stroke-width:2;stroke-linecap:round;stroke-miterlimit:10; stroke-dasharray: 1500; stroke-dashoffset: 1500; animation: dash 10s linear forwards;}
	.st8{fill:#42BB94; stroke-dasharray: 1500; stroke-dashoffset: 1500; animation: dash 10s linear forwards;}
	.st9{fill:none;stroke:#6B4FA0;stroke-width:2;stroke-linecap:round;stroke-miterlimit:10; stroke-dasharray: 1500; stroke-dashoffset: 1500; animation: dash 10s linear forwards;}

	@keyframes dash {
		to {
			stroke-dashoffset: 0;
		}
	}
</style>
<g id="Layer_1">
</g>
<g id="Layer_2">
	<polyline class="st0" points="586.1,273.3 575.7,271.7 575.7,253.9 	"/>
	<polyline class="st0" points="557.4,253.9 557.4,271.7 546.3,273.3 	"/>
	<line class="st1" x1="557" y1="218.1" x2="557" y2="223.1"/>
	<line class="st1" x1="576.1" y1="218.1" x2="576.1" y2="223.1"/>
	<path class="st1" d="M556.2,238.4c0,0,10.5,8.7,19.9,0"/>
	<line class="st2" x1="598.7" y1="356" x2="598.7" y2="299.4"/>
	<path class="st2" d="M599.7,311.4h17.8c0,0,0.6-18.7,0-26.2c-0.6-7.5-10.6-9.4-10.6-9.4l-18.5-4.6l-22.1,24L544,271.7l-15.8,7.3
		c0,0-10.6,4.4-11.2,8.1s0,25,0,25h17.7l0.8-13.9l0.8,58"/>
	<g>
		<path class="st0" d="M566.2,187.9c0,0-6.1,21.6-26.7,30.3c0,0.5,0,0.9,0,1.4c0,19.7,12.1,35.7,27,35.7c9.1,0,17.2-6,22.1-15.2
			C586.7,220.4,581.4,194.5,566.2,187.9z"/>
		<path class="st3" d="M562.4,184.3l-2.2-2c-22.5-18.4-30.1,8.2-30.1,8.2c-17.4,43.8,11.8,73.1,11.8,73.1
			c-5.6-8.6-3.9-44.8-3.9-44.8c0.5-0.2,1-0.4,1.6-0.6"/>
		<path class="st3" d="M539.4,218.2c20.6-8.7,26.7-30.3,26.7-30.3l-3.8-3.6"/>
		<path class="st3" d="M588.5,240.1c1.2,13.1,0.8,23.5,0.8,23.5c8.1-22.9,14.2-32.8,6.9-64.9c-7.5-32.7-32.1-20.2-32.1-20.2l-4.8,3
			l0.8,0.7c0.8,0.6,1.5,1.3,2.3,2"/>
		<path class="st3" d="M562.5,184.3c1.2,1.1,2.4,2.3,3.6,3.6c15.2,6.6,20.5,32.5,22.3,52.2"/>
		<path class="st3" d="M562.5,184.3c-0.8-0.7-1.6-1.4-2.3-2l2.2,2C562.4,184.3,562.5,184.3,562.5,184.3z"/>
	</g>
	<path class="st4" d="M599.5,341.4c0,0,3.6,5,6.1,8.2c2.5,3.2,12.1-1.6,12.1-1.6l18.3-29.5l12.8-0.6c0,0,5,0.3,5-5v-13.3
		c0,0,0.4-4.3-3.9-4.6l-5.6-0.4v-9.3c-2.5-8.8-8.1,0-8.1,0v9.3c-3.1,0-5,6.6-5,6.6l-16.9,27.2v-15.6"/>
	<path class="st4" d="M644.3,294.6c0,0-5.8,0.7-4.5,2.9c0,0-1.2,2.3,2.8,3c4.1,0.6,12,0.5,12,0.5"/>
	<path class="st4" d="M644.3,301c0,0-5.8,0.7-4.5,2.9c0,0-1.2,2.3,2.8,3c4.1,0.6,12,0.5,12,0.5"/>
	<path class="st4" d="M644.3,307.3c0,0-5.8,0.7-4.5,2.9c0,0-1.2,2.3,2.8,3c4.1,0.6,12,0.5,12,0.5"/>
	<path class="st5" d="M536.9,364.3c0,0-0.6-0.2-0.7-8.1"/>
	<path class="st5" d="M520.1,313.1v41.4c0,0-1.7,11.8,4.4,24.3"/>
	<polyline class="st2" points="137.9,81.7 137.9,59.1 661.8,59.1 661.8,334.5 630.6,334.5 	"/>
	<line class="st2" x1="516.7" y1="334.5" x2="224.5" y2="334.5"/>
	<line class="st2" x1="516.7" y1="343.1" x2="221.5" y2="343.1"/>
	<polyline class="st2" points="661.8,334.5 671,334.5 671,343.1 624.8,343.1 	"/>
	<rect x="283.7" y="142" class="st6" width="98.7" height="77.4"/>
	<rect x="299.9" y="159.3" class="st6" width="31.5" height="24.7"/>
	<rect x="335.5" y="159.3" class="st6" width="31.5" height="24.7"/>
	<rect x="299.9" y="186.9" class="st6" width="31.5" height="24.7"/>
	<rect x="335.5" y="186.9" class="st6" width="31.5" height="24.7"/>
	<rect x="396.2" y="142" class="st6" width="98.7" height="77.4"/>
	<line class="st6" x1="283.7" y1="151.9" x2="382.4" y2="151.9"/>
	<line class="st6" x1="397.1" y1="151.9" x2="495.8" y2="151.9"/>
	<rect x="411.9" y="159.3" class="st6" width="65" height="24.7"/>
	<rect x="411.9" y="186.9" class="st6" width="65" height="24.7"/>
	<line class="st2" x1="283.7" y1="232.1" x2="367" y2="232.1"/>
	<line class="st2" x1="283.7" y1="242.1" x2="336.6" y2="242.1"/>
	<line class="st2" x1="283.7" y1="253.1" x2="351.3" y2="253.1"/>
	<line class="st2" x1="395.4" y1="231.6" x2="437" y2="231.6"/>
	<line class="st2" x1="395.4" y1="241.6" x2="448.3" y2="241.6"/>
	<line class="st2" x1="395.4" y1="252.6" x2="462.9" y2="252.6"/>
	<circle class="st2" cx="299.9" cy="151.9" r="10.5"/>
	<circle class="st2" cx="416.2" cy="175.8" r="10.5"/>
	<circle class="st2" cx="351.3" cy="212.2" r="10.5"/>
	<circle class="st2" cx="291.8" cy="113.6" r="10.5"/>
	<line class="st2" x1="314.4" y1="113.6" x2="397.7" y2="113.6"/>
	<rect x="260.6" y="319" class="st7" width="51" height="13.1"/>
	<polyline class="st1" points="175.9,206.3 163.2,203.2 163.2,180.7 	"/>
	<polyline class="st1" points="135.1,180.7 135.1,203.2 122.4,206.3 	"/>
	<line class="st1" x1="136.5" y1="133.7" x2="136.5" y2="140.2"/>
	<line class="st1" x1="161.7" y1="133.7" x2="161.7" y2="140.2"/>
	<path class="st1" d="M135.5,160.3c0,0,13.8,11.4,26.3,0"/>
	<g>
		<path class="st0" d="M113.4,142.7c0,0.6,0-0.8,0-0.1c0,25.9,15.9,40,35.5,40c0,0,36.3,2.8,36.3-46.9"/>
	</g>
	<g>
		<path class="st8" d="M170.4,249.5c0,2.4-1.8,4.3-4.2,4.4c-2.5,0.1-4.4-1.9-4.4-4.3c0-2.4,1.9-4.3,4.3-4.3
			C168.4,245.3,170.3,247.1,170.4,249.5z"/>
		<path class="st8" d="M166,279c2.4,0,4.3,1.9,4.3,4.2c0,2.5-1.9,4.4-4.4,4.4c-2.4,0-4.2-2-4.2-4.3C161.8,280.9,163.7,279,166,279z"
			/>
		<path class="st8" d="M139.3,244c1.9,0,3.5,1.6,3.5,3.5c0,1.8-1.6,3.4-3.5,3.4c-1.9,0-3.4-1.5-3.4-3.4
			C135.8,245.5,137.4,244,139.3,244z"/>
		<path class="st8" d="M137.2,266.4c0,2-1.5,3.4-3.5,3.4c-2,0-3.4-1.5-3.4-3.5c0-1.9,1.6-3.5,3.4-3.5
			C135.6,262.9,137.2,264.5,137.2,266.4z"/>
		<path class="st8" d="M142.8,285.6c0,1.9-1.6,3.4-3.5,3.3c-2,0-3.4-1.5-3.4-3.5c0-1.9,1.6-3.4,3.5-3.3
			C141.2,282.1,142.8,283.7,142.8,285.6z"/>
		<path class="st8" d="M139.7,274.4c0.1,1.5-1.1,2.7-2.6,2.8c-1.4,0-2.8-1.2-2.7-2.7c0.1-1.5,1-2.5,2.5-2.7
			C138.3,271.6,139.6,272.9,139.7,274.4z"/>
		<path class="st8" d="M132.5,254.6c-1.4,0-2.6-1.1-2.7-2.5c-0.1-1.4,1.1-2.8,2.6-2.8c1.4,0,2.6,1,2.7,2.5
			C135.2,253.2,134,254.5,132.5,254.6z"/>
		<path class="st8" d="M132.5,278.4c1.5,0.1,2.7,1.4,2.5,2.9c-0.1,1.4-1.3,2.5-2.7,2.5c-1.5-0.1-2.7-1.4-2.6-2.8
			C129.9,279.5,131.1,278.3,132.5,278.4z"/>
		<path class="st8" d="M137,261.2c-1.4,0-2.7-1.3-2.7-2.7c0-1.4,1.4-2.8,2.8-2.6c1.5,0.2,2.5,1,2.6,2.6
			C139.8,259.8,138.4,261.2,137,261.2z"/>
		<path class="st8" d="M158.8,240.8c1.4,0,2.6,1.1,2.7,2.5c0.1,1.5-1,2.8-2.5,2.8c-1.5,0-2.6-1-2.7-2.5
			C156.2,242.1,157.3,240.8,158.8,240.8z"/>
		<path class="st8" d="M147.4,244.6c1.4,0,2.6,1.2,2.7,2.5c0.1,1.5-1.2,2.8-2.7,2.7c-1.4,0-2.6-1.1-2.7-2.6
			C144.7,245.8,145.9,244.6,147.4,244.6z"/>
		<path class="st8" d="M147.3,288.4c-1.5-0.1-2.7-1.3-2.5-2.8c0.1-1.6,1.2-2.4,2.7-2.5c1.4-0.1,2.7,1.3,2.7,2.7
			C150,287.2,148.7,288.4,147.3,288.4z"/>
		<path class="st8" d="M161.5,289.6c0,1.4-1.2,2.6-2.6,2.6c-1.5,0-2.7-1.3-2.6-2.8c0-1.5,1.2-2.6,2.6-2.6
			C160.4,286.8,161.6,288.1,161.5,289.6z"/>
		<path class="st8" d="M153.2,251.2c-0.8-1.1-1.6-1.8-1.5-2.3c0.1-0.6,0.9-1.5,1.4-1.5c0.6,0,1.5,0.9,1.5,1.4
			C154.8,249.3,154,250,153.2,251.2z"/>
		<path class="st8" d="M128.2,258.5c-0.7-1.1-1.6-1.8-1.5-2.3c0.2-0.6,1.1-1.1,1.7-1.6c0.5,0.6,1.3,1.1,1.4,1.7
			C129.8,256.8,129,257.4,128.2,258.5z"/>
		<path class="st8" d="M128.1,274.5c0.8,1,1.7,1.6,1.7,2.1c-0.1,0.7-1,1.2-1.5,1.8c-0.6-0.5-1.5-1-1.5-1.6
			C126.6,276.3,127.4,275.6,128.1,274.5z"/>
		<path class="st8" d="M155.5,284.1c-1.1,0.7-1.7,1.5-2.3,1.5c-0.6-0.1-1.5-0.9-1.5-1.5c0-0.5,0.9-1.4,1.5-1.5
			C153.7,282.6,154.4,283.4,155.5,284.1z"/>
		<path class="st8" d="M155.4,242c-1,0.7-1.7,1.4-2.1,1.3c-0.6-0.2-1-1-1.5-1.6c0.5-0.5,1.1-1.2,1.6-1.3
			C153.9,240.4,154.4,241.2,155.4,242z"/>
		<path class="st8" d="M153.3,288.9c0.7,1,1.4,1.7,1.3,2.2c-0.1,0.6-0.9,1-1.4,1.5c-0.5-0.5-1.3-1-1.4-1.7
			C151.7,290.5,152.6,289.9,153.3,288.9z"/>
		<path class="st8" d="M141.6,256.6c-0.6-0.8-1.2-1.3-1.1-1.7c0-0.5,0.7-0.9,1.1-1.3c0.4,0.4,1.1,0.8,1.2,1.4
			C142.8,255.3,142.2,255.8,141.6,256.6z"/>
		<path class="st8" d="M141.6,279.9c-0.5-0.8-1.2-1.4-1.1-1.7c0.1-0.5,0.8-0.9,1.3-1.3c0.4,0.5,1,0.9,1,1.4
			C142.8,278.6,142.1,279.1,141.6,279.9z"/>
		<path class="st8" d="M127.9,260.3c-0.7,0.4-1.2,0.9-1.6,0.9c-0.3,0-0.6-0.6-0.9-1c0.4-0.3,0.8-0.8,1.2-0.9
			C126.9,259.2,127.3,259.8,127.9,260.3z"/>
		<path class="st8" d="M127.9,272.8c-0.6,0.4-1.1,0.9-1.4,0.9c-0.4-0.1-0.7-0.7-1.1-1c0.4-0.3,0.8-0.8,1.2-0.9
			C126.9,271.7,127.3,272.3,127.9,272.8z"/>
	</g>
	<path class="st2" d="M106.3,346.7l-1.2-91.5l-1.2,18.2H78.5c0,0-0.9-35.3,0-41.5c0.9-6.2,16.2-13.5,16.2-13.5l22.9-12.1
		c0,0,29.4,21.5,63.9-0.8l26.7,7.7c0,0,14.4,3.1,15.3,15.6c0.9,12.5,0,43.6,0,43.6h-25.6"/>
	<line class="st2" x1="196.5" y1="257.2" x2="196.5" y2="346.5"/>
	<polygon class="st9" points="109.5,107.5 121.5,88.7 122.5,98.1 143.6,79.3 141.6,87.9 167.1,79.3 166.1,89.5 185.2,84 175.9,93.4 
		200.5,87.9 185.2,100.4 194.8,99.6 185.2,111.4 194.8,111.4 185.2,123.1 192.5,123.1 185.2,135.9 179.8,146.4 175.9,133.7 
		175.9,124.7 175.9,113.3 151.8,116.8 122.5,113.3 118.2,129.4 113.4,145.4 106.7,123.1 	"/>
	<path class="st4" d="M104,313.7c0,0-7.1,6.1-10.7,10.6c-3.6,4.5-16.3-0.2-16.3-0.2l-28.1-43l-18.2-0.9c0,0-7.1,0.4-7.1-7.1v-18.9
		c0,0-0.5-6.2,5.5-6.6l8-0.5v-13.3c3.6-12.5,11.5,0,11.5,0v13.3c4.4,0,7.1,9.4,7.1,9.4l24,32.7V273"/>
	<path class="st4" d="M37.3,247.1c0,0,8.2,1,6.4,4.1c0,0,1.8,3.3-4,4.2c-5.8,0.9-17,0.7-17,0.7"/>
	<path class="st4" d="M37.3,256.1c0,0,8.2,1,6.4,4.1c0,0,1.8,3.3-4,4.2s-17,0.7-17,0.7"/>
	<path class="st4" d="M37.3,265.2c0,0,8.2,1,6.4,4.1c0,0,1.8,3.3-4,4.2s-17,0.7-17,0.7"/>
	<path class="st5" d="M221.1,274.4v58.9c0,0-3.5,16.8-12.3,34.6"/>
	<path class="st1" d="M113.4,156.1c-3.3,0-5.9-3.6-5.9-8c0-2.9,1.2-5.5,2.9-6.9"/>
	<path class="st1" d="M184.5,156.1c3.3,0,5.9-3.6,5.9-8c0-2.9-1.2-5.5-2.9-6.9"/>
	<rect x="331.8" y="327.6" class="st6" width="20" height="5"/>
	<rect x="361.8" y="327.6" class="st2" width="20" height="5"/>
</g>
</svg>
