<svg width="231" height="267" viewBox="0 0 231 267" fill="none" xmlns="http://www.w3.org/2000/svg">
<path d="M176.68 143.188L97.7245 195.956C89.982 201.13 79.5979 195.58 79.5979 186.268L79.5979 80.7322C79.5979 71.4196 89.982 65.8699 97.7246 71.0444L176.68 123.812C183.583 128.426 183.583 138.574 176.68 143.188Z" stroke="#56A3EA" stroke-width="8.6958"/>
<path d="M203.657 146.519L86.4382 224.743C76.037 231.684 62.0979 224.228 62.0979 211.724L62.0979 55.2764C62.0979 42.7719 76.037 35.3161 86.4382 42.2571L203.657 120.481C212.943 126.677 212.943 140.323 203.657 146.519Z" stroke="#56A3EA" stroke-width="8.6958" stroke-miterlimit="2.9987" stroke-linejoin="round"/>
<path d="M149.871 139.338L109.038 166.962C103.956 170.399 97.0979 166.759 97.0979 160.624L97.0979 105.376C97.0979 99.2412 103.956 95.6006 109.038 99.0383L149.871 126.662C154.357 129.697 154.357 136.303 149.871 139.338Z" stroke="#56A3EA" stroke-width="8.6958"/>
</svg>
