<?xml version="1.0" encoding="utf-8"?>
<!-- Generator: Adobe Illustrator 23.1.0, SVG Export Plug-In . SVG Version: 6.00 Build 0)  -->
<svg version="1.0" id="Layer_1" xmlns="http://www.w3.org/2000/svg" xmlns:xlink="http://www.w3.org/1999/xlink" x="0px" y="0px"
	 viewBox="0 0 120 120" style="enable-background:new 0 0 120 120;" xml:space="preserve">
<g>
	<path style="fill:#5FA1D7;" d="M28.4,112.8c4.9-5.8,10.3-10.7,15.9-15.4c5.6-4.6,11.5-9,17.6-13c6.1-4,12.3-7.7,18.8-11.1
		c6.5-3.3,13.1-6.5,20.4-8.7l0.3,0.5l-9,6.2l-9.1,6.1L65.2,89.4l-18.2,12l-9.1,6l-9.2,5.9L28.4,112.8z"/>
</g>
<g>
	<path style="fill:#5FA1D7;" d="M102.7,56.2C95.5,53.7,89,50.5,82.6,47c-6.4-3.5-12.5-7.4-18.4-11.6C58.3,31.3,52.5,26.8,47,22
		c-5.5-4.8-10.8-9.8-15.5-15.7l0.3-0.5l9,6.1l8.9,6.2l17.8,12.4L85.3,43l8.9,6.3l8.8,6.3L102.7,56.2z"/>
</g>
<g>
	<path style="fill:#5FA1D7;" d="M21.7,23.1c2.1,5.8,3.2,11.5,4,17.3c0.7,5.8,1.1,11.5,1.1,17.3c0,5.8-0.4,11.5-1.1,17.3
		c-0.8,5.8-1.9,11.5-4,17.3h-0.6L21,83.5l-0.1-8.6l-0.1-17.3l0.1-17.3l0.1-8.6l0.1-8.6H21.7z"/>
</g>
<g>
	<path style="fill:#5FA1D7;" d="M35.5,97.7c3.2-4.7,7.1-8.6,11-12.1c4-3.6,8.2-6.8,12.7-9.7c4.4-2.9,9-5.6,13.9-7.9
		c4.9-2.3,9.9-4.3,15.5-5.5l0.3,0.5l-6.5,4.5l-6.6,4.4l-13.2,8.9l-13.3,8.7l-6.7,4.4l-6.7,4.3L35.5,97.7z"/>
</g>
<g>
	<path style="fill:#5FA1D7;" d="M89,57.1c-5.5-1.3-10.5-3.4-15.3-5.8c-4.8-2.4-9.3-5.2-13.6-8.2c-4.3-3-8.4-6.4-12.3-10
		c-3.9-3.7-7.6-7.6-10.7-12.4l0.3-0.5l6.6,4.4l6.5,4.5l13,9l12.9,9.2L83,52l6.4,4.7L89,57.1z"/>
</g>
<g>
	<path style="fill:#5FA1D7;" d="M30.7,32.3c2.1,4.2,3.2,8.4,4,12.6c0.7,4.2,1.1,8.4,1.1,12.6c0,4.2-0.4,8.4-1.1,12.6
		c-0.8,4.2-1.9,8.4-4,12.6h-0.6L30,76.3L29.9,70l-0.1-12.6l0.1-12.6l0.1-6.3l0.1-6.3H30.7z"/>
</g>
<g>
	<path style="fill:#5FA1D7;" d="M44.6,81.4c1.2-3.4,3.1-5.9,5.1-8.2c2-2.2,4.2-4.1,6.7-5.7c2.4-1.6,5-2.9,7.9-3.9
		c2.9-1,5.9-1.7,9.5-1.5l0.3,0.5l-3.6,2.5l-3.6,2.5l-7.2,4.9l-7.3,4.7l-3.7,2.4l-3.7,2.3L44.6,81.4z"/>
</g>
<g>
	<path style="fill:#5FA1D7;" d="M73.6,57.7C70,57.7,67,57,64.2,56c-2.8-1.1-5.4-2.4-7.7-4.1c-2.4-1.7-4.5-3.6-6.5-5.9
		c-1.9-2.3-3.7-4.9-4.8-8.3l0.3-0.5l3.6,2.4l3.6,2.5l7.2,4.9L67,52l3.5,2.5l3.5,2.6L73.6,57.7z"/>
</g>
<g>
	<path style="fill:#5FA1D7;" d="M39.5,43.6c2.1,2.3,3.2,4.6,4,6.9c0.7,2.3,1.1,4.6,1.1,6.9c0,2.3-0.4,4.6-1.1,6.9
		c-0.8,2.3-1.9,4.6-4,6.9h-0.6l-0.1-3.5l-0.1-3.5l-0.1-6.9l0.1-6.9l0.1-3.5l0.1-3.5H39.5z"/>
</g>
</svg>
