<?xml version="1.0" encoding="utf-8"?>
<!-- Generator: Adobe Illustrator 23.1.0, SVG Export Plug-In . SVG Version: 6.00 Build 0)  -->
<svg version="1.1" xmlns="http://www.w3.org/2000/svg" xmlns:xlink="http://www.w3.org/1999/xlink" x="0px" y="0px"
	 viewBox="0 0 759.5 447.3" style="enable-background:new 0 0 759.5 447.3;" xml:space="preserve">
<style type="text/css">
	.st0{fill:none;stroke:#42BB94;stroke-width:2;stroke-linecap:round;stroke-miterlimit:10; stroke-dasharray: 1500; stroke-dashoffset: 1500; animation: dash 5s linear forwards;}
	.st1{fill:none;stroke:#3D81C3;stroke-width:2;stroke-linecap:round;stroke-miterlimit:10; stroke-dasharray: 1500; stroke-dashoffset: 1500; animation: dash 5s linear forwards;}
	.st2{fill:none;stroke:#6B4FA0;stroke-width:2;stroke-linecap:round;stroke-miterlimit:10; stroke-dasharray: 1500; stroke-dashoffset: 1500; animation: dash 5s linear forwards;}
	.st3{fill:none;stroke:#A92829;stroke-width:2;stroke-miterlimit:10; stroke-dasharray: 1500; stroke-dashoffset: 1500; animation: dash 10s linear forwards;}

	@keyframes dash {
		to {
			stroke-dashoffset: 0;
		}
	}
</style>
<g id="Layer_1">
	<path class="st0" d="M327.8,392.6l7-98.1c0-6.6,5.4-12,12-12h75.9c6.6,0,12,5.4,12,12l7,98.1"/>
	<path class="st0" d="M357.5,397.8L357.5,397.8c-4.5,0-8.2-3.7-8.2-8.2v-52.4c0-4.5,3.7-8.2,8.2-8.2h0c4.5,0,8.2,3.7,8.2,8.2v52.4
		C365.6,394.1,362,397.8,357.5,397.8z"/>
	<path class="st0" d="M385.7,397.8L385.7,397.8c-4.5,0-8.2-3.7-8.2-8.2v-52.4c0-4.5,3.7-8.2,8.2-8.2l0,0c4.5,0,8.2,3.7,8.2,8.2v52.4
		C393.9,394.1,390.2,397.8,385.7,397.8z"/>
	<path class="st0" d="M413.9,397.8L413.9,397.8c-4.5,0-8.2-3.7-8.2-8.2v-52.4c0-4.5,3.7-8.2,8.2-8.2l0,0c4.5,0,8.2,3.7,8.2,8.2v52.4
		C422.1,394.1,418.4,397.8,413.9,397.8z"/>
	<path class="st0" d="M440.8,318.7h77.7c3.5,0,6.4,2,6.4,4.4v0c0,2.4-2.9,4.4-6.4,4.4h-77.1"/>
	<path class="st0" d="M307.5,327.4h-61.9c-2.6,0-4.6-2-4.6-4.4v0c0-2.4,2.1-4.4,4.6-4.4h61.5"/>
	<path class="st1" d="M311.5,309v37.3c0,0,0.4,5.5,8.2,7s10.1-1,10.1-1"/>
	<path class="st1" d="M351.6,211.7c-3.6,0.7-7.3-2.6-8.3-7.4s1.1-9.3,4.8-10.1"/>
	<path class="st1" d="M412,211.7c3.6,0.7,7.3-2.6,8.3-7.4s-1.1-9.3-4.8-10.1"/>
	<polyline class="st2" points="308,317 259.8,317 259.8,298.2 305,298.2 	"/>
</g>
<g id="Layer_2">
	<polyline class="st1" points="357.3,248.9 363.7,244.4 363.7,232.6 	"/>
	<polyline class="st1" points="408.7,247.9 402.3,243.4 402.3,234.6 	"/>
	<g>
		<path class="st1" d="M479.9,244.4l10.1-42.5c0.6-4,1.3-8.1,1.6-12.1c1-11,2-22,2.8-33c0.4-5.1,0.5-10.3,1-15.4
			c0.4-3.8,0.7-7.8,3.6-10.8c3.2-3.3,5.1-7.3,6.2-11.7c0.9-3.4,2.9-6.1,5.7-8.2c3.5-2.6,6.9-5.2,10.4-7.9c0.9-0.7,1.9-1.4,2.4-2.3
			c0.6-1.2,0.8-2.5,1-3.9c0.2-1-0.6-1.3-1.5-1.4c-2-0.1-3.3,1.1-4.8,2.1c-3.5,2.3-7,4.6-10.5,6.8c-1,0.7-2.2,1-3.6,0.1
			c0.5-0.9,1-1.9,1.6-2.7c3.3-4.7,6.8-9.2,10-13.9c1-1.4,1.8-3.1,2.4-4.8c0.4-1.2-0.3-2.3-1.4-2.8c-0.8-0.3-1.9-0.3-2.6,0.1
			c-1,0.5-1.9,1.4-2.6,2.3c-2.7,3.3-5.3,6.6-8,9.9c-1.5,1.9-3.1,3.9-5.5,4.9c0.4-1.4,0.9-2.8,1.5-4.1c2.8-5.5,5.7-10.9,8.6-16.3
			c0.9-1.8,0.2-4.1-1.5-5.1c-1.4-0.8-3.4-0.4-4.3,1.3c-3.3,6.1-7.7,11.4-10.2,17.9c-0.1,0.3-0.3,0.7-0.5,1c-0.8,0.9-1.1,2.8-2.8,2.2
			c-1.7-0.6-1.5-2.3-1.3-3.7c0.5-3.8,1.3-7.6,1.8-11.4c0.3-2,0.5-4,0.4-6c-0.2-2.4-2-3.2-4-1.9c-1,0.7-1.9,1.9-2.4,3
			c-2.1,5.7-3.8,11.6-4.2,17.7c-0.3,3.9-1.1,7.8-3,11.3c-2.2,4.2-5.1,4.6-8.6,1.5c-1.1-1-2.1-2-3.2-2.9c-3.5-2.7-7.3-3.8-11.6-2.4
			c-0.7,0.2-1.4,1.1-1.5,1.7c-0.1,0.5,0.5,1.5,1,1.7c3.5,1.3,5.7,4.2,8.2,6.6c2.5,2.3,4.8,4.8,6.7,7.6c4.9,7.1,7.1,14.9,5.7,23.7
			c-1,6.2-1.9,12.5-2.5,18.8c-0.6,6.6-1.9,13-3.7,19.3c-1.6,5.7-3.1,11.3-4.6,17c-0.5,1.9-0.9,3.9-1.4,5.9l-8.7,29.3"/>
	</g>
	<path class="st0" d="M433.6,308.1"/>
	<polygon class="st2" points="354.7,217.4 362.9,232.1 365.1,217.4 374.2,238.2 382.1,217.4 388.9,238.2 396.3,217.4 401.6,238.2 
		411.7,207.5 421.4,161.7 411.7,140.6 401.6,151.4 392.1,128.8 373.6,151.4 368.7,135.9 361.4,151.4 348.1,145.4 345.1,165.2 
		339.1,160.9 	"/>
	<path class="st3" d="M328.1,309h-19.8c0,0-0.9-32.1,0-37.8c0.9-5.7,17-12.3,17-12.3l30-11c10,5.7,25.8,13.9,56-0.7l22.6,6.4
		l15.1-23.9l32.8,14.7c0,0-30.2,46-40,48c-2.2,0.4-0.8,0.8-2.1,1.1"/>
	<polygon style="fill:none;" points="-163.2,144.4 -169,144.4 -169,144.4 -163.2,144.4 	"/>
	<g>
		<path class="st0" d="M375.5,77.7c0-1.3,0.4-2.4,1.3-3.3c0.9-0.9,2-1.3,3.3-1.3c2.1,0,4-0.3,5.6-1c1.7-0.6,3-1.7,4-3.1
			c1-1.4,1.5-3.3,1.5-5.6c0-1.7-0.4-3.3-1.3-4.6c-0.8-1.3-2-2.4-3.4-3.1c-1.4-0.8-3.1-1.1-4.9-1.1c-1.4,0-2.8,0.3-4,0.8
			c-1.2,0.5-2.4,1.2-3.4,2.1c-0.8,0.7-1.8,1.2-2.9,1.6c-1.1,0.3-2.3,0.1-3.5-0.8c-1.2-0.9-1.9-2-2-3.3c-0.1-1.3,0.4-2.4,1.4-3.5
			c1.8-1.9,4-3.3,6.4-4.4c2.5-1,5.1-1.6,7.9-1.6c3.5,0,6.7,0.8,9.5,2.4c2.8,1.6,5.1,3.7,6.7,6.4c1.7,2.7,2.5,5.7,2.5,9.1
			c0,2.5-0.4,4.8-1.1,6.7c-0.8,2-1.8,3.6-3.2,5c-1.4,1.4-3,2.5-4.9,3.4c-1.9,0.8-3.9,1.4-6.1,1.8c-0.1,0.1-0.2,0.1-0.3,0.2
			c-0.1,0.1-0.1,0.1-0.1,0.2v2.8c0,1.3-0.4,2.4-1.3,3.3c-0.9,0.9-2,1.3-3.3,1.3c-1.3,0-2.4-0.4-3.3-1.3c-0.9-0.9-1.3-2-1.3-3.3V77.7
			z M379.7,101.8c-1.5,0-2.6-0.4-3.4-1.2c-0.8-0.8-1.2-1.9-1.2-3.4v-1.3c0-1.5,0.4-2.6,1.2-3.4c0.8-0.8,1.9-1.2,3.4-1.2h1
			c1.5,0,2.6,0.4,3.4,1.2c0.8,0.8,1.2,1.9,1.2,3.4v1.3c0,1.5-0.4,2.6-1.2,3.4c-0.8,0.8-1.9,1.2-3.4,1.2H379.7z"/>
	</g>
</g>
</svg>
