<?xml version="1.0" encoding="utf-8"?>
<!-- Generator: Adobe Illustrator 23.1.0, SVG Export Plug-In . SVG Version: 6.00 Build 0)  -->
<svg version="1.1" xmlns="http://www.w3.org/2000/svg" xmlns:xlink="http://www.w3.org/1999/xlink" x="0px" y="0px"
	 viewBox="0 0 1200 501.3" enable-background="new 0 0 1200 501.3" xml:space="preserve">
<style type="text/css">
	@keyframes dash {
		to {
			stroke-dashoffset: 0;
		}
	}

	#Layer_2 {
		stroke-dasharray: 300; stroke-dashoffset: 200000; animation: dash 999s linear forwards;
	}
</style>
<g id="Layer_2">
	<g>
		<path fill="none" stroke="#4FA1FF" stroke-width="3" stroke-miterlimit="10" d="M925,467.7c0,5.5-4.5,10-10,10H286
			c-5.5,0-10-4.5-10-10v-436c0-5.5,4.5-10,10-10h629c5.5,0,10,4.5,10,10V467.7z"/>
	</g>
	<g>
		<path fill="none" stroke="#4FA1FF" stroke-width="3" stroke-miterlimit="10" d="M264,467.7c0,5.5-4.5,10-10,10H45
			c-5.5,0-10-4.5-10-10v-436c0-5.5,4.5-10,10-10h209c5.5,0,10,4.5,10,10V467.7z"/>
	</g>
	<g>
		<path fill="none" stroke="#4FA1FF" stroke-width="3" stroke-miterlimit="10" d="M1165.5,154.3c0,5.5-4.5,10-10,10H947
			c-5.5,0-10-4.5-10-10V31c0-5.5,4.5-10,10-10h208.5c5.5,0,10,4.5,10,10V154.3z"/>
	</g>
	<g>
		<path fill="none" stroke="#4FA1FF" stroke-width="3" stroke-miterlimit="10" d="M1165.5,310.8c0,5.5-4.5,10-10,10H947
			c-5.5,0-10-4.5-10-10V187.6c0-5.5,4.5-10,10-10h208.5c5.5,0,10,4.5,10,10V310.8z"/>
	</g>
	<g>
		<path fill="none" stroke="#4FA1FF" stroke-width="3" stroke-miterlimit="10" d="M1165.3,467.7c0,5.5-4.5,10-10,10H946.8
			c-5.5,0-10-4.5-10-10V344.4c0-5.5,4.5-10,10-10h208.5c5.5,0,10,4.5,10,10V467.7z"/>
	</g>
	<g>
		<path fill="none" stroke="#7C52EF" stroke-width="3" stroke-miterlimit="10" d="M986.6,162c2.4-6.9,6.1-13,13.3-16
			c5.9-2.5,11.7-4.9,17.6-7.2c6-2.3,12.1-4.2,17.3-8.3c2.6-2,3.7-4.4,4-7.6c0.4-4.5-2.1-8.3-3-12.5c-0.1-0.3-0.7-0.7-1.1-0.6
			c-3.2,0.4-4.5-1.6-5.2-4.1c-1-3.5-1.7-7.1-2.4-10.6c-0.2-1.3-0.3-2.8,0.2-3.9c1.7-3.4,0.8-6.9,0.5-10.3c-0.3-2.8-0.8-5.7-0.4-8.5
			c0.7-4.9,8.8-14.4,13.4-16.3c0.4-0.2,0.9-0.4,1.3-0.5c2.5-0.7,4.9-1.4,7.4-2.1c2.8,0,5.6,0,8.4,0c2.7,1.4,5.4,2.8,7.9,4.3
			c6.9,4.1,11.8,9.7,12.8,18.1c0.4,2.9,0.8,6,2.1,8.6c1.2,2.5,1.6,5,1.5,7.6c-0.2,3.1-0.3,6.2-0.4,9.3c-0.1,3.2-0.4,3.8-3.6,4.8
			c-0.1,0.9-0.3,1.9-0.4,2.9c-0.3,4.5-1.3,8.7-3.8,12.6c-1.7,2.7-1.7,5.8-1.6,8.9c0.1,2.6,1,4.3,3.8,4.6c0.8,0.1,1.6,0.6,2.4,0.9
			c7.4,3,14.7,5.9,22.1,9c2.1,0.9,4.1,1.9,6,3.1c4.6,2.8,7.3,6.8,7.8,12.2c0.1,1.4,0.4,2.8,0.8,4.1"/>
		<path fill="none" stroke="#7C52EF" stroke-width="3" stroke-miterlimit="10" d="M1013,228.6"/>
	</g>
	<g>
		<path fill="none" stroke="#7C52EF" stroke-width="3" stroke-miterlimit="10" d="M997.4,318.4c1.1-12.9,8.3-26.6,21.4-29.3
			c8.9-1.9,19.4-2.4,22.6-14.1c-24-12.9-27.9-46.9-5.8-62.8c7.8-5.6,21.3-5.5,31.8-4.5c10.6,1,15.1,10.6,16,21.1
			c0.4,4.8,0,9.6,0.9,14.3c1.2,6.7,3.2,13.2,5.5,22.1c-5.1,2.6-12.6,6.3-24.1,12c9.3,4.5,16,8.7,23.2,10.9
			c21.1,6.3,23.7,10.2,25.2,31.5"/>
	</g>
	<g>
		<path fill="none" stroke="#7C52EF" stroke-width="3" stroke-miterlimit="10" d="M993.4,476.2c-0.2-6.7,1.5-12.6,4.9-18.2
			c2.4-4,5.8-6.8,10.4-8.2c2.5-0.8,4.9-1.7,7.3-2.6c2.9-1.1,3.1-1.3,2.3-4.2c-1-4-2.2-7.9-3.3-11.8c-0.2-0.6-0.2-1.3-0.3-1.9
			c-0.3-1.8,0.5-2.4,2.2-2.6c5.9-0.7,11.9-1.5,17.7-2.3c-0.5-0.9-1.2-2.1-1.9-3.2c-0.3-0.5-0.7-1.1-1.2-1.2
			c-3.2-0.6-3.8-3.3-4.4-5.8c-0.6-2.6-0.5-5.3-0.9-7.9c-0.4-2.7-1-5.3-1.4-7.9c-0.2-1.5-0.2-3.1-0.2-4.6c0.1-2.5,0.1-4.9,0.4-7.3
			c0.1-1.1,0.4-2.5,1.1-3.1c1.2-1,0.9-1.8,0.1-2.7c-0.6-0.8-1.3-1.6-1.8-2.4c-0.8-1.1-0.5-2,0.9-2c2.1,0,2.8-1.2,3.2-3
			c0.3-1.4,0.8-2.8,1.3-4.1c0.4-1.1,0.5-2.5,2.3-2.3c0.2,0,0.8-0.8,0.9-1.2c0.2-0.9,0.1-1.9,0.1-2.8c0-3.8,0.5-4.3,4.5-4.6
			c-0.4,1.4-0.8,2.7-1.3,4.1c0.2,0.1,0.4,0.2,0.6,0.3c0.4-0.5,0.7-1.1,1.1-1.6c0.6-0.7,1.2-1.4,1.9-2c0.8-0.6,2.3-0.7,1.9-2.3
			c1.4-0.2,2.8-0.7,4.2-0.6c1.2,0.1,2.3,1.1,3.7,0c0.5-0.4,2.1,0.5,3.1,0.9c1.1,0.4,2,1.2,3.2-0.2c0.6-0.7,2.3-0.3,3.7-0.4
			c0.8,3.8,4,2,6.3,2.4c0.5,0.1,1-0.2,1.5-0.2c2.2,0,3.1,1.1,2.2,3.1c-0.5,1.3-0.2,2.2,0.5,3.3c1.7,2.6,3,5.4,4.7,7.9
			c0.5,0.7,1.6,1.2,2.5,1.4c1.9,0.3,2.5,0.9,2.2,2.9c-0.6,3.7-1.2,7.3-1.7,11c-0.1,0.8,0.1,1.6,0.2,2.3c0.2,2.4,0.2,4.8,0.5,7.2
			c0.1,0.8,0.3,1.8,0.9,2.4c1,1,0.9,1.8-0.2,2.4c-1.1,0.6-1.1,1.3-1,2.4c0.5,4.6-1.6,8.6-3.4,12.7c-0.1,0.1-0.2,0.2-0.2,0.4
			c-1.4,2.4-2.8,4.7-4.2,7.1c0.3,0,1,0.1,1.6,0c6-1,11.5,1,17,2.9c1.9,0.7,2.8,2,2.7,3.9c-0.3,3.3-0.7,6.5-1.1,9.8
			c0,0.4-0.2,0.7-0.2,1.1c-0.6,4.5-0.6,4.8,3.7,6.2c11.4,3.8,15.2,12.8,16.4,23.5"/>
	</g>
	<g>
		<path fill="none" stroke="#36EACC" stroke-width="2" stroke-miterlimit="10" d="M962.4,50.6c0-3.4,0-6.9,0-10.4c0-0.3,0-0.7,0-1
			c0.1-0.8,0.7-1.3,1.5-1.2c0.9,0.1,1.2,0.6,1.2,1.4c0,1.7,0,3.5,0,5.2c0,0.3,0,0.6,0.1,0.9c0.1,0,0.2,0,0.3,0
			c0-0.3,0.1-0.6,0.1-0.8c0-2.1,0-4.3,0-6.4c0-1.1,0.5-1.7,1.4-1.6c0.8,0,1.3,0.6,1.3,1.6c0,2.3,0,4.7,0,7c0,0.3,0,0.6,0,0.9
			c0.1,0,0.2,0,0.3,0c0-0.8,0-1.6,0-2.4c0-1.3,0-2.6,0-3.9c0-0.9,0.5-1.3,1.4-1.3c0.8,0,1.3,0.5,1.3,1.4c0,2.1,0,4.3,0,6.4
			c0,0.3,0,0.6,0.1,0.9c0.1,0,0.2,0,0.3,0c0-0.3,0.1-0.6,0.1-0.9c0-1.1,0-2.2,0-3.4c0-0.8,0.4-1.2,1.2-1.2s1.1,0.5,1.1,1.2
			c0,3.1,0.1,6.1,0,9.2c-0.1,2.2-1.1,4.3-2.2,6.2c-0.2,0.3-0.7,0.5-1.1,0.5c-2,0-4.1,0.1-6.1,0c-0.5,0-1.1-0.4-1.3-0.8
			c-1.6-2.3-3.1-4.7-4.6-7.2c-0.2-0.4-0.4-1.3-0.3-1.4c0.5-0.4,1.2-0.7,1.7-0.6C961,49.4,961.7,50.1,962.4,50.6z"/>
	</g>
	<circle fill="none" stroke="#36EACC" stroke-width="3" stroke-miterlimit="10" cx="967" cy="48.5" r="19"/>
	<circle fill="none" stroke="#36EACC" stroke-width="3" stroke-miterlimit="10" cx="63" cy="48" r="19"/>
	<g>
		<path fill="none" stroke="#36EACC" stroke-width="3" stroke-miterlimit="10" d="M49.2,60c0.5-1.5,1.3-2.8,2.9-3.5
			c1.3-0.5,2.5-1,3.8-1.5c1.3-0.5,2.6-0.9,3.7-1.8c0.6-0.4,0.8-0.9,0.9-1.6c0.1-1-0.5-1.8-0.6-2.7c0-0.1-0.2-0.1-0.2-0.1
			c-0.7,0.1-1-0.4-1.1-0.9c-0.2-0.8-0.4-1.5-0.5-2.3c-0.1-0.3-0.1-0.6,0-0.8c0.4-0.7,0.2-1.5,0.1-2.2c-0.1-0.6-0.2-1.2-0.1-1.8
			c0.2-1.1,1.9-3.1,2.9-3.5c0.1,0,0.2-0.1,0.3-0.1c0.5-0.1,1.1-0.3,1.6-0.4c0.6,0,1.2,0,1.8,0c0.6,0.3,1.2,0.6,1.7,0.9
			c1.5,0.9,2.5,2.1,2.8,3.9c0.1,0.6,0.2,1.3,0.4,1.9c0.3,0.5,0.4,1.1,0.3,1.6c0,0.7-0.1,1.3-0.1,2c0,0.7-0.1,0.8-0.8,1
			c0,0.2-0.1,0.4-0.1,0.6c-0.1,1-0.3,1.9-0.8,2.7c-0.4,0.6-0.4,1.2-0.4,1.9c0,0.6,0.2,0.9,0.8,1c0.2,0,0.3,0.1,0.5,0.2
			c1.6,0.6,3.2,1.3,4.8,1.9c0.4,0.2,0.9,0.4,1.3,0.7c1,0.6,1.6,1.5,1.7,2.6c0,0.3,0.1,0.6,0.2,0.9"/>
		<path fill="none" stroke="#36EACC" stroke-width="3" stroke-miterlimit="10" d="M54.9,74.4"/>
	</g>
	<circle fill="none" stroke="#36EACC" stroke-width="3" stroke-miterlimit="10" cx="63" cy="98" r="19"/>
	<g>
		<path fill="none" stroke="#36EACC" stroke-width="3" stroke-miterlimit="10" d="M49.2,110c0.5-1.5,1.3-2.8,2.9-3.5
			c1.3-0.5,2.5-1,3.8-1.5c1.3-0.5,2.6-0.9,3.7-1.8c0.6-0.4,0.8-0.9,0.9-1.6c0.1-1-0.5-1.8-0.6-2.7c0-0.1-0.2-0.1-0.2-0.1
			c-0.7,0.1-1-0.4-1.1-0.9c-0.2-0.8-0.4-1.5-0.5-2.3c-0.1-0.3-0.1-0.6,0-0.8c0.4-0.7,0.2-1.5,0.1-2.2c-0.1-0.6-0.2-1.2-0.1-1.8
			c0.2-1.1,1.9-3.1,2.9-3.5c0.1,0,0.2-0.1,0.3-0.1c0.5-0.1,1.1-0.3,1.6-0.4c0.6,0,1.2,0,1.8,0c0.6,0.3,1.2,0.6,1.7,0.9
			c1.5,0.9,2.5,2.1,2.8,3.9c0.1,0.6,0.2,1.3,0.4,1.9c0.3,0.5,0.4,1.1,0.3,1.6c0,0.7-0.1,1.3-0.1,2c0,0.7-0.1,0.8-0.8,1
			c0,0.2-0.1,0.4-0.1,0.6c-0.1,1-0.3,1.9-0.8,2.7c-0.4,0.6-0.4,1.2-0.4,1.9c0,0.6,0.2,0.9,0.8,1c0.2,0,0.3,0.1,0.5,0.2
			c1.6,0.6,3.2,1.3,4.8,1.9c0.4,0.2,0.9,0.4,1.3,0.7c1,0.6,1.6,1.5,1.7,2.6c0,0.3,0.1,0.6,0.2,0.9"/>
		<path fill="none" stroke="#36EACC" stroke-width="3" stroke-miterlimit="10" d="M54.9,124.4"/>
	</g>
	<circle fill="none" stroke="#36EACC" stroke-width="3" stroke-miterlimit="10" cx="63" cy="148" r="19"/>
	<g>
		<path fill="none" stroke="#36EACC" stroke-width="3" stroke-miterlimit="10" d="M49.2,160c0.5-1.5,1.3-2.8,2.9-3.5
			c1.3-0.5,2.5-1,3.8-1.5c1.3-0.5,2.6-0.9,3.7-1.8c0.6-0.4,0.8-0.9,0.9-1.6c0.1-1-0.5-1.8-0.6-2.7c0-0.1-0.2-0.1-0.2-0.1
			c-0.7,0.1-1-0.4-1.1-0.9c-0.2-0.8-0.4-1.5-0.5-2.3c-0.1-0.3-0.1-0.6,0-0.8c0.4-0.7,0.2-1.5,0.1-2.2c-0.1-0.6-0.2-1.2-0.1-1.8
			c0.2-1.1,1.9-3.1,2.9-3.5c0.1,0,0.2-0.1,0.3-0.1c0.5-0.1,1.1-0.3,1.6-0.4c0.6,0,1.2,0,1.8,0c0.6,0.3,1.2,0.6,1.7,0.9
			c1.5,0.9,2.5,2.1,2.8,3.9c0.1,0.6,0.2,1.3,0.4,1.9c0.3,0.5,0.4,1.1,0.3,1.6c0,0.7-0.1,1.3-0.1,2c0,0.7-0.1,0.8-0.8,1
			c0,0.2-0.1,0.4-0.1,0.6c-0.1,1-0.3,1.9-0.8,2.7c-0.4,0.6-0.4,1.2-0.4,1.9c0,0.6,0.2,0.9,0.8,1c0.2,0,0.3,0.1,0.5,0.2
			c1.6,0.6,3.2,1.3,4.8,1.9c0.4,0.2,0.9,0.4,1.3,0.7c1,0.6,1.6,1.5,1.7,2.6c0,0.3,0.1,0.6,0.2,0.9"/>
		<path fill="none" stroke="#36EACC" stroke-width="3" stroke-miterlimit="10" d="M54.9,174.4"/>
	</g>
	<circle fill="none" stroke="#36EACC" stroke-width="3" stroke-miterlimit="10" cx="63" cy="198" r="19"/>
	<g>
		<path fill="none" stroke="#36EACC" stroke-width="3" stroke-miterlimit="10" d="M49.2,210c0.5-1.5,1.3-2.8,2.9-3.5
			c1.3-0.5,2.5-1,3.8-1.5c1.3-0.5,2.6-0.9,3.7-1.8c0.6-0.4,0.8-0.9,0.9-1.6c0.1-1-0.5-1.8-0.6-2.7c0-0.1-0.2-0.1-0.2-0.1
			c-0.7,0.1-1-0.4-1.1-0.9c-0.2-0.8-0.4-1.5-0.5-2.3c-0.1-0.3-0.1-0.6,0-0.8c0.4-0.7,0.2-1.5,0.1-2.2c-0.1-0.6-0.2-1.2-0.1-1.8
			c0.2-1.1,1.9-3.1,2.9-3.5c0.1,0,0.2-0.1,0.3-0.1c0.5-0.1,1.1-0.3,1.6-0.4c0.6,0,1.2,0,1.8,0c0.6,0.3,1.2,0.6,1.7,0.9
			c1.5,0.9,2.5,2.1,2.8,3.9c0.1,0.6,0.2,1.3,0.4,1.9c0.3,0.5,0.4,1.1,0.3,1.6c0,0.7-0.1,1.3-0.1,2c0,0.7-0.1,0.8-0.8,1
			c0,0.2-0.1,0.4-0.1,0.6c-0.1,1-0.3,1.9-0.8,2.7c-0.4,0.6-0.4,1.2-0.4,1.9c0,0.6,0.2,0.9,0.8,1c0.2,0,0.3,0.1,0.5,0.2
			c1.6,0.6,3.2,1.3,4.8,1.9c0.4,0.2,0.9,0.4,1.3,0.7c1,0.6,1.6,1.5,1.7,2.6c0,0.3,0.1,0.6,0.2,0.9"/>
		<path fill="none" stroke="#36EACC" stroke-width="3" stroke-miterlimit="10" d="M54.9,224.4"/>
	</g>
	<circle fill="none" stroke="#36EACC" stroke-width="3" stroke-miterlimit="10" cx="63" cy="248" r="19"/>
	<g>
		<path fill="none" stroke="#36EACC" stroke-width="3" stroke-miterlimit="10" d="M49.2,260c0.5-1.5,1.3-2.8,2.9-3.5
			c1.3-0.5,2.5-1,3.8-1.5c1.3-0.5,2.6-0.9,3.7-1.8c0.6-0.4,0.8-0.9,0.9-1.6c0.1-1-0.5-1.8-0.6-2.7c0-0.1-0.2-0.1-0.2-0.1
			c-0.7,0.1-1-0.4-1.1-0.9c-0.2-0.8-0.4-1.5-0.5-2.3c-0.1-0.3-0.1-0.6,0-0.8c0.4-0.7,0.2-1.5,0.1-2.2c-0.1-0.6-0.2-1.2-0.1-1.8
			c0.2-1.1,1.9-3.1,2.9-3.5c0.1,0,0.2-0.1,0.3-0.1c0.5-0.1,1.1-0.3,1.6-0.4c0.6,0,1.2,0,1.8,0c0.6,0.3,1.2,0.6,1.7,0.9
			c1.5,0.9,2.5,2.1,2.8,3.9c0.1,0.6,0.2,1.3,0.4,1.9c0.3,0.5,0.4,1.1,0.3,1.6c0,0.7-0.1,1.3-0.1,2c0,0.7-0.1,0.8-0.8,1
			c0,0.2-0.1,0.4-0.1,0.6c-0.1,1-0.3,1.9-0.8,2.7c-0.4,0.6-0.4,1.2-0.4,1.9c0,0.6,0.2,0.9,0.8,1c0.2,0,0.3,0.1,0.5,0.2
			c1.6,0.6,3.2,1.3,4.8,1.9c0.4,0.2,0.9,0.4,1.3,0.7c1,0.6,1.6,1.5,1.7,2.6c0,0.3,0.1,0.6,0.2,0.9"/>
		<path fill="none" stroke="#36EACC" stroke-width="3" stroke-miterlimit="10" d="M54.9,274.4"/>
	</g>
	<circle fill="none" stroke="#36EACC" stroke-width="3" stroke-miterlimit="10" cx="63" cy="298" r="19"/>
	<g>
		<path fill="none" stroke="#36EACC" stroke-width="3" stroke-miterlimit="10" d="M49.2,310c0.5-1.5,1.3-2.8,2.9-3.5
			c1.3-0.5,2.5-1,3.8-1.5c1.3-0.5,2.6-0.9,3.7-1.8c0.6-0.4,0.8-0.9,0.9-1.6c0.1-1-0.5-1.8-0.6-2.7c0-0.1-0.2-0.1-0.2-0.1
			c-0.7,0.1-1-0.4-1.1-0.9c-0.2-0.8-0.4-1.5-0.5-2.3c-0.1-0.3-0.1-0.6,0-0.8c0.4-0.7,0.2-1.5,0.1-2.2c-0.1-0.6-0.2-1.2-0.1-1.8
			c0.2-1.1,1.9-3.1,2.9-3.5c0.1,0,0.2-0.1,0.3-0.1c0.5-0.1,1.1-0.3,1.6-0.4c0.6,0,1.2,0,1.8,0c0.6,0.3,1.2,0.6,1.7,0.9
			c1.5,0.9,2.5,2.1,2.8,3.9c0.1,0.6,0.2,1.3,0.4,1.9c0.3,0.5,0.4,1.1,0.3,1.6c0,0.7-0.1,1.3-0.1,2c0,0.7-0.1,0.8-0.8,1
			c0,0.2-0.1,0.4-0.1,0.6c-0.1,1-0.3,1.9-0.8,2.7c-0.4,0.6-0.4,1.2-0.4,1.9c0,0.6,0.2,0.9,0.8,1c0.2,0,0.3,0.1,0.5,0.2
			c1.6,0.6,3.2,1.3,4.8,1.9c0.4,0.2,0.9,0.4,1.3,0.7c1,0.6,1.6,1.5,1.7,2.6c0,0.3,0.1,0.6,0.2,0.9"/>
		<path fill="none" stroke="#36EACC" stroke-width="3" stroke-miterlimit="10" d="M54.9,324.4"/>
	</g>
	<circle fill="none" stroke="#36EACC" stroke-width="3" stroke-miterlimit="10" cx="63" cy="348" r="19"/>
	<g>
		<path fill="none" stroke="#36EACC" stroke-width="3" stroke-miterlimit="10" d="M49.2,360c0.5-1.5,1.3-2.8,2.9-3.5
			c1.3-0.5,2.5-1,3.8-1.5c1.3-0.5,2.6-0.9,3.7-1.8c0.6-0.4,0.8-0.9,0.9-1.6c0.1-1-0.5-1.8-0.6-2.7c0-0.1-0.2-0.1-0.2-0.1
			c-0.7,0.1-1-0.4-1.1-0.9c-0.2-0.8-0.4-1.5-0.5-2.3c-0.1-0.3-0.1-0.6,0-0.8c0.4-0.7,0.2-1.5,0.1-2.2c-0.1-0.6-0.2-1.2-0.1-1.8
			c0.2-1.1,1.9-3.1,2.9-3.5c0.1,0,0.2-0.1,0.3-0.1c0.5-0.1,1.1-0.3,1.6-0.4c0.6,0,1.2,0,1.8,0c0.6,0.3,1.2,0.6,1.7,0.9
			c1.5,0.9,2.5,2.1,2.8,3.9c0.1,0.6,0.2,1.3,0.4,1.9c0.3,0.5,0.4,1.1,0.3,1.6c0,0.7-0.1,1.3-0.1,2c0,0.7-0.1,0.8-0.8,1
			c0,0.2-0.1,0.4-0.1,0.6c-0.1,1-0.3,1.9-0.8,2.7c-0.4,0.6-0.4,1.2-0.4,1.9c0,0.6,0.2,0.9,0.8,1c0.2,0,0.3,0.1,0.5,0.2
			c1.6,0.6,3.2,1.3,4.8,1.9c0.4,0.2,0.9,0.4,1.3,0.7c1,0.6,1.6,1.5,1.7,2.6c0,0.3,0.1,0.6,0.2,0.9"/>
		<path fill="none" stroke="#36EACC" stroke-width="3" stroke-miterlimit="10" d="M54.9,374.4"/>
	</g>
	<circle fill="none" stroke="#36EACC" stroke-width="3" stroke-miterlimit="10" cx="63" cy="398" r="19"/>
	<g>
		<path fill="none" stroke="#36EACC" stroke-width="3" stroke-miterlimit="10" d="M49.2,410c0.5-1.5,1.3-2.8,2.9-3.5
			c1.3-0.5,2.5-1,3.8-1.5c1.3-0.5,2.6-0.9,3.7-1.8c0.6-0.4,0.8-0.9,0.9-1.6c0.1-1-0.5-1.8-0.6-2.7c0-0.1-0.2-0.1-0.2-0.1
			c-0.7,0.1-1-0.4-1.1-0.9c-0.2-0.8-0.4-1.5-0.5-2.3c-0.1-0.3-0.1-0.6,0-0.8c0.4-0.7,0.2-1.5,0.1-2.2c-0.1-0.6-0.2-1.2-0.1-1.8
			c0.2-1.1,1.9-3.1,2.9-3.5c0.1,0,0.2-0.1,0.3-0.1c0.5-0.1,1.1-0.3,1.6-0.4c0.6,0,1.2,0,1.8,0c0.6,0.3,1.2,0.6,1.7,0.9
			c1.5,0.9,2.5,2.1,2.8,3.9c0.1,0.6,0.2,1.3,0.4,1.9c0.3,0.5,0.4,1.1,0.3,1.6c0,0.7-0.1,1.3-0.1,2c0,0.7-0.1,0.8-0.8,1
			c0,0.2-0.1,0.4-0.1,0.6c-0.1,1-0.3,1.9-0.8,2.7c-0.4,0.6-0.4,1.2-0.4,1.9c0,0.6,0.2,0.9,0.8,1c0.2,0,0.3,0.1,0.5,0.2
			c1.6,0.6,3.2,1.3,4.8,1.9c0.4,0.2,0.9,0.4,1.3,0.7c1,0.6,1.6,1.5,1.7,2.6c0,0.3,0.1,0.6,0.2,0.9"/>
		<path fill="none" stroke="#36EACC" stroke-width="3" stroke-miterlimit="10" d="M54.9,424.4"/>
	</g>
	<circle fill="none" stroke="#36EACC" stroke-width="3" stroke-miterlimit="10" cx="63" cy="448" r="19"/>
	<g>
		<path fill="none" stroke="#36EACC" stroke-width="3" stroke-miterlimit="10" d="M49.2,460c0.5-1.5,1.3-2.8,2.9-3.5
			c1.3-0.5,2.5-1,3.8-1.5c1.3-0.5,2.6-0.9,3.7-1.8c0.6-0.4,0.8-0.9,0.9-1.6c0.1-1-0.5-1.8-0.6-2.7c0-0.1-0.2-0.1-0.2-0.1
			c-0.7,0.1-1-0.4-1.1-0.9c-0.2-0.8-0.4-1.5-0.5-2.3c-0.1-0.3-0.1-0.6,0-0.8c0.4-0.7,0.2-1.5,0.1-2.2c-0.1-0.6-0.2-1.2-0.1-1.8
			c0.2-1.1,1.9-3.1,2.9-3.5c0.1,0,0.2-0.1,0.3-0.1c0.5-0.1,1.1-0.3,1.6-0.4c0.6,0,1.2,0,1.8,0c0.6,0.3,1.2,0.6,1.7,0.9
			c1.5,0.9,2.5,2.1,2.8,3.9c0.1,0.6,0.2,1.3,0.4,1.9c0.3,0.5,0.4,1.1,0.3,1.6c0,0.7-0.1,1.3-0.1,2c0,0.7-0.1,0.8-0.8,1
			c0,0.2-0.1,0.4-0.1,0.6c-0.1,1-0.3,1.9-0.8,2.7c-0.4,0.6-0.4,1.2-0.4,1.9c0,0.6,0.2,0.9,0.8,1c0.2,0,0.3,0.1,0.5,0.2
			c1.6,0.6,3.2,1.3,4.8,1.9c0.4,0.2,0.9,0.4,1.3,0.7c1,0.6,1.6,1.5,1.7,2.6c0,0.3,0.1,0.6,0.2,0.9"/>
		<path fill="none" stroke="#36EACC" stroke-width="3" stroke-miterlimit="10" d="M54.9,474.4"/>
	</g>
	<line fill="none" stroke="#36EACC" stroke-width="3" stroke-miterlimit="10" x1="97.4" y1="48.8" x2="238.3" y2="48.8"/>
	<line fill="none" stroke="#36EACC" stroke-width="3" stroke-miterlimit="10" x1="97.4" y1="98.8" x2="238.3" y2="98.8"/>
	<line fill="none" stroke="#36EACC" stroke-width="3" stroke-miterlimit="10" x1="97.4" y1="148.8" x2="238.3" y2="148.8"/>
	<line fill="none" stroke="#36EACC" stroke-width="3" stroke-miterlimit="10" x1="97.4" y1="198.8" x2="238.3" y2="198.8"/>
	<line fill="none" stroke="#36EACC" stroke-width="3" stroke-miterlimit="10" x1="97.4" y1="248.8" x2="238.3" y2="248.8"/>
	<line fill="none" stroke="#36EACC" stroke-width="3" stroke-miterlimit="10" x1="97.4" y1="298.8" x2="238.3" y2="298.8"/>
	<line fill="none" stroke="#36EACC" stroke-width="3" stroke-miterlimit="10" x1="97.4" y1="348.8" x2="238.3" y2="348.8"/>
	<line fill="none" stroke="#36EACC" stroke-width="3" stroke-miterlimit="10" x1="97.4" y1="398.8" x2="238.3" y2="398.8"/>
	<line fill="none" stroke="#36EACC" stroke-width="3" stroke-miterlimit="10" x1="97.4" y1="448.8" x2="238.3" y2="448.8"/>
	<path fill="none" stroke="#56A3EA" stroke-width="3" d="M642.5,254.5l-52.6,35.2c-5.2,3.4-12.1-0.3-12.1-6.5v-70.3
		c0-6.2,6.9-9.9,12.1-6.5l52.6,35.2C647.1,244.6,647.1,251.4,642.5,254.5z"/>
	<path fill="none" stroke="#56A3EA" stroke-width="3" stroke-linejoin="round" stroke-miterlimit="2.9987" d="M660.5,256.7
		l-78.1,52.1c-6.9,4.6-16.2-0.3-16.2-8.7V195.9c0-8.3,9.3-13.3,16.2-8.7l78.1,52.1C666.7,243.5,666.7,252.6,660.5,256.7z"/>
	<path fill="none" stroke="#56A3EA" stroke-width="3" d="M624.7,251.9l-27.2,18.4c-3.4,2.3-8-0.1-8-4.2v-36.8c0-4.1,4.6-6.5,8-4.2
		l27.2,18.4C627.7,245.5,627.7,249.9,624.7,251.9z"/>
</g>
</svg>
