<?xml version="1.0" encoding="utf-8"?>
<!-- Generator: Adobe Illustrator 23.1.0, SVG Export Plug-In . SVG Version: 6.00 Build 0)  -->
<svg version="1.1" id="Layer_1" xmlns="http://www.w3.org/2000/svg" xmlns:xlink="http://www.w3.org/1999/xlink" x="0px" y="0px"
	 viewBox="0 0 899.3 250" style="enable-background:new 0 0 899.3 250;" xml:space="preserve">
<style type="text/css">
	.st0{display:none;}
	.st1{opacity:0.5;}
	.st2{fill:#56A3EA;}
	.st3{opacity:0.66;fill:#56A3EA;enable-background:new    ;}
	.st4{opacity:0.33;fill:#56A3EA;enable-background:new    ;}
</style>
<polyline class="st0" points="1054,0 1054,250 0,250 0,0 "/>
<g class="st1">
	<path class="st2" d="M224.4,61.5h40.2v98.1h62.8v32.1h-103V61.5z"/>
	<path class="st2" d="M342.8,61.5h40.3v130.2h-40.3V61.5z"/>
	<path class="st2" d="M394.6,61.5h42.1l36.3,93.7l21.9-93.7h37.8l-45.3,130.2h-33.6L394.6,61.5z"/>
	<path class="st2" d="M544.3,61.5h107.8v27.8h-67.5V110h62.6v26.6h-62.6v25.7H654v29.5H544.3V61.5z"/>
	<path class="st2" d="M671.2,61.5h40.2v98.1h62.8v32.1h-103V61.5z"/>
	<path class="st2" d="M740.8,61.5h41.7l26.2,43.9L835,61.5h40.5l-46.6,75.7v54.5h-40.3v-54.5L740.8,61.5z"/>
</g>
<g>
	<path class="st2" d="M224.4,61.5h40.2v98.1h62.8v32.1h-103V61.5z"/>
	<path class="st2" d="M342.8,61.5h40.3v130.2h-40.3V61.5z"/>
	<path class="st2" d="M465,155.2l29.9-93.7h37.8l-45.3,130.2h-33.6"/>
	<path class="st2" d="M544.3,61.5h107.8v27.8h-67.5V110h62.6v26.6h-62.6v25.7H654v29.5H544.3V61.5z"/>
	<path class="st2" d="M671.2,61.5h40.2v98.1h62.8v32.1h-103V61.5z"/>
	<path class="st2" d="M808.7,105.4L835,61.5h40.5l-46.6,75.7v54.5h-40.3v-54.5"/>
</g>
<polygon class="st2" points="167.8,122.1 5.8,234.3 4.9,180.7 128.6,95.5 "/>
<polygon class="st3" points="126.3,148.7 2.6,60.4 2.5,6.8 166.4,121.1 "/>
<polygon class="st4" points="45.4,90.9 44.7,191.1 5.8,223.5 2.9,60.5 "/>
</svg>
