<svg width="863" height="267" viewBox="0 0 863 267" fill="none" xmlns="http://www.w3.org/2000/svg">
<path d="M285.968 96.608C288.848 96.608 291.312 96.672 293.36 96.8C295.408 96.928 297.296 97.152 299.024 97.472C300.752 97.728 302.544 98.112 304.4 98.624L303.44 105.824C301.52 105.632 299.728 105.504 298.064 105.44C296.4 105.312 294.608 105.216 292.688 105.152C290.832 105.088 288.592 105.056 285.968 105.056C281.872 105.056 278.64 105.856 276.272 107.456C273.904 109.056 272.208 111.744 271.184 115.52C270.224 119.232 269.744 124.352 269.744 130.88C269.744 137.408 270.224 142.56 271.184 146.336C272.208 150.048 273.904 152.704 276.272 154.304C278.64 155.904 281.872 156.704 285.968 156.704C290.128 156.704 293.616 156.64 296.432 156.512C299.312 156.32 302.096 156.032 304.784 155.648L305.744 162.848C302.928 163.68 300.016 164.256 297.008 164.576C294.064 164.96 290.384 165.152 285.968 165.152C279.504 165.152 274.352 164.064 270.512 161.888C266.672 159.648 263.888 156.032 262.16 151.04C260.432 146.048 259.568 139.328 259.568 130.88C259.568 122.432 260.432 115.712 262.16 110.72C263.888 105.728 266.672 102.144 270.512 99.968C274.352 97.728 279.504 96.608 285.968 96.608ZM340.35 96.512C346.878 96.512 352.062 97.568 355.902 99.68C359.806 101.792 362.59 105.344 364.254 110.336C365.982 115.328 366.846 122.176 366.846 130.88C366.846 139.584 365.982 146.432 364.254 151.424C362.59 156.416 359.806 159.968 355.902 162.08C352.062 164.192 346.878 165.248 340.35 165.248C333.822 165.248 328.606 164.192 324.702 162.08C320.798 159.968 317.982 156.416 316.254 151.424C314.526 146.432 313.662 139.584 313.662 130.88C313.662 122.176 314.526 115.328 316.254 110.336C317.982 105.344 320.798 101.792 324.702 99.68C328.606 97.568 333.822 96.512 340.35 96.512ZM340.35 104.864C336.19 104.864 332.894 105.664 330.462 107.264C328.094 108.8 326.398 111.488 325.374 115.328C324.35 119.104 323.838 124.288 323.838 130.88C323.838 137.472 324.35 142.688 325.374 146.528C326.398 150.304 328.094 152.992 330.462 154.592C332.894 156.128 336.19 156.896 340.35 156.896C344.51 156.896 347.774 156.128 350.142 154.592C352.574 152.992 354.302 150.304 355.326 146.528C356.35 142.688 356.862 137.472 356.862 130.88C356.862 124.288 356.35 119.104 355.326 115.328C354.302 111.488 352.574 108.8 350.142 107.264C347.774 105.664 344.51 104.864 340.35 104.864ZM432.498 97.76V160.256C432.498 162.752 431.314 164 428.946 164H420.69C419.602 164 418.738 163.776 418.098 163.328C417.522 162.816 417.01 162.048 416.562 161.024L394.866 116.288C394.29 115.008 393.618 113.568 392.85 111.968C392.082 110.304 391.506 108.768 391.122 107.36H389.682C389.81 108.832 389.906 110.336 389.97 111.872C390.034 113.408 390.066 114.912 390.066 116.384V164H380.658V101.504C380.658 99.008 381.874 97.76 384.306 97.76H392.274C393.362 97.76 394.226 98.016 394.866 98.528C395.506 98.976 396.05 99.712 396.498 100.736L417.426 144.32C418.13 145.664 418.866 147.2 419.634 148.928C420.466 150.656 421.266 152.352 422.034 154.016H423.57C423.442 152.288 423.346 150.592 423.282 148.928C423.218 147.2 423.186 145.504 423.186 143.84V97.76H432.498ZM500.467 97.76V160.256C500.467 162.752 499.283 164 496.915 164H488.659C487.571 164 486.707 163.776 486.067 163.328C485.491 162.816 484.979 162.048 484.531 161.024L462.835 116.288C462.259 115.008 461.587 113.568 460.819 111.968C460.051 110.304 459.475 108.768 459.091 107.36H457.651C457.779 108.832 457.875 110.336 457.939 111.872C458.003 113.408 458.035 114.912 458.035 116.384V164H448.627V101.504C448.627 99.008 449.843 97.76 452.275 97.76H460.243C461.331 97.76 462.195 98.016 462.835 98.528C463.475 98.976 464.019 99.712 464.467 100.736L485.395 144.32C486.099 145.664 486.835 147.2 487.603 148.928C488.435 150.656 489.235 152.352 490.003 154.016H491.539C491.411 152.288 491.315 150.592 491.25 148.928C491.187 147.2 491.155 145.504 491.155 143.84V97.76H500.467ZM529.075 97.664C533.875 97.664 538.771 97.696 543.763 97.76C548.819 97.76 553.555 97.92 557.971 98.24L557.587 105.632H531.187C527.475 105.632 525.619 107.648 525.619 111.68V125.408H553.843V132.8H525.619V150.08C525.619 154.176 527.475 156.224 531.187 156.224H557.587L557.971 163.52C553.555 163.84 548.819 164 543.763 164C538.771 164.064 533.875 164.096 529.075 164.096C525.107 164.096 521.939 163.04 519.571 160.928C517.203 158.816 516.019 155.936 516.019 152.288V109.472C516.019 105.824 517.203 102.944 519.571 100.832C521.939 98.72 525.107 97.664 529.075 97.664ZM594.124 96.608C597.004 96.608 599.468 96.672 601.516 96.8C603.564 96.928 605.452 97.152 607.18 97.472C608.908 97.728 610.7 98.112 612.556 98.624L611.596 105.824C609.676 105.632 607.884 105.504 606.22 105.44C604.556 105.312 602.764 105.216 600.844 105.152C598.988 105.088 596.748 105.056 594.124 105.056C590.028 105.056 586.796 105.856 584.428 107.456C582.06 109.056 580.364 111.744 579.34 115.52C578.38 119.232 577.9 124.352 577.9 130.88C577.9 137.408 578.38 142.56 579.34 146.336C580.364 150.048 582.06 152.704 584.428 154.304C586.796 155.904 590.028 156.704 594.124 156.704C598.284 156.704 601.772 156.64 604.588 156.512C607.468 156.32 610.252 156.032 612.94 155.648L613.9 162.848C611.084 163.68 608.172 164.256 605.164 164.576C602.22 164.96 598.54 165.152 594.124 165.152C587.66 165.152 582.508 164.064 578.668 161.888C574.828 159.648 572.044 156.032 570.316 151.04C568.588 146.048 567.724 139.328 567.724 130.88C567.724 122.432 568.588 115.712 570.316 110.72C572.044 105.728 574.828 102.144 578.668 99.968C582.508 97.728 587.66 96.608 594.124 96.608ZM671.233 97.76V106.016H650.113V164H640.513V106.016H619.489V97.76H671.233ZM691.102 97.76V164H681.502V97.76H691.102ZM756.631 97.76L736.855 161.312C736.599 162.08 736.151 162.72 735.511 163.232C734.871 163.744 734.135 164 733.303 164H723.799C722.903 164 722.135 163.744 721.495 163.232C720.855 162.72 720.407 162.08 720.151 161.312L700.471 97.76H710.455L725.431 149.408C725.751 150.624 726.071 151.84 726.391 153.056C726.711 154.208 726.999 155.392 727.255 156.608H729.847C730.103 155.392 730.391 154.176 730.711 152.96C731.031 151.744 731.383 150.528 731.767 149.312L746.647 97.76H756.631ZM778.638 97.664C783.438 97.664 788.334 97.696 793.326 97.76C798.382 97.76 803.118 97.92 807.534 98.24L807.15 105.632H780.75C777.038 105.632 775.182 107.648 775.182 111.68V125.408H803.406V132.8H775.182V150.08C775.182 154.176 777.038 156.224 780.75 156.224H807.15L807.534 163.52C803.118 163.84 798.382 164 793.326 164C788.334 164.064 783.438 164.096 778.638 164.096C774.67 164.096 771.502 163.04 769.134 160.928C766.766 158.816 765.582 155.936 765.582 152.288V109.472C765.582 105.824 766.766 102.944 769.134 100.832C771.502 98.72 774.67 97.664 778.638 97.664Z" fill="white"/>
<path d="M176.68 143.188L97.7245 195.956C89.982 201.13 79.5979 195.58 79.5979 186.268L79.5979 80.7322C79.5979 71.4196 89.982 65.8699 97.7246 71.0444L176.68 123.812C183.583 128.426 183.583 138.574 176.68 143.188Z" stroke="#56A3EA" stroke-width="8.6958"/>
<path d="M203.657 120.481C212.943 126.677 212.943 140.323 203.657 146.519L86.4382 224.743C76.037 231.684 62.0979 224.228 62.0979 211.724L62.0979 55.2764C62.0979 42.7719 76.037 35.3161 86.4382 42.2571L203.657 120.481Z" stroke="#56A3EA" stroke-width="8.6958" stroke-miterlimit="2.9987" stroke-linejoin="round"/>
<path d="M149.871 126.662C154.357 129.697 154.357 136.303 149.871 139.338L109.038 166.962C103.956 170.399 97.0979 166.759 97.0979 160.624L97.0979 105.376C97.0979 99.2412 103.956 95.6006 109.038 99.0383L149.871 126.662Z" stroke="#56A3EA" stroke-width="8.6958"/>
</svg>
