<?xml version="1.0" encoding="utf-8"?>
<!-- Generator: Adobe Illustrator 26.0.1, SVG Export Plug-In . SVG Version: 6.00 Build 0)  -->
<svg version="1.1" id="Layer_1" xmlns="http://www.w3.org/2000/svg" xmlns:xlink="http://www.w3.org/1999/xlink" x="0px" y="0px"
	 viewBox="0 0 863 267" style="enable-background:new 0 0 863 267;" xml:space="preserve">
<style type="text/css">
	.st0{fill:none;stroke:#56A3EA;stroke-width:8.6958;}
	.st1{fill:none;stroke:#56A3EA;stroke-width:8.6958;stroke-linejoin:round;stroke-miterlimit:2.9987;}
	.st2{fill:#FFFFFF;}
</style>
<path class="st0" d="M176.7,143.2l-79,52.8c-7.7,5.2-18.1-0.4-18.1-9.7V80.7c0-9.3,10.4-14.9,18.1-9.7l79,52.8
	C183.6,128.4,183.6,138.6,176.7,143.2z"/>
<path class="st1" d="M203.7,120.5c9.3,6.2,9.3,19.8,0,26L86.4,224.7c-10.4,6.9-24.3-0.5-24.3-13V55.3c0-12.5,13.9-20,24.3-13
	L203.7,120.5z"/>
<path class="st0" d="M149.9,126.7c4.5,3,4.5,9.6,0,12.7L109,167c-5.1,3.4-11.9-0.2-11.9-6.3v-55.2c0-6.1,6.9-9.8,11.9-6.3
	L149.9,126.7z"/>
<g>
	<path class="st2" d="M272.2,92.4c3.4,0.1,6.9,0.2,10.5,0.5c3.6,0.3,7.2,0.8,10.8,1.6l-0.7,7.2c-2.9-0.1-6.2-0.2-9.8-0.3
		c-3.6-0.1-7.1-0.1-10.5-0.1c-2.4,0-4.4,0.1-6.1,0.2c-1.7,0.1-3.1,0.5-4.2,1.1c-1.1,0.6-1.9,1.6-2.4,2.9c-0.5,1.4-0.8,3.2-0.8,5.6
		c0,3.6,0.7,6.1,2,7.6c1.4,1.5,3.5,2.6,6.6,3.3l14.1,3.8c5.4,1.4,9.1,3.6,11.1,6.8c2,3.2,3,7.5,3,12.9c0,4.1-0.5,7.3-1.4,9.8
		c-0.9,2.5-2.3,4.4-4.3,5.8c-1.9,1.4-4.4,2.3-7.4,2.8c-3,0.5-6.7,0.8-10.8,0.8c-2.3,0-5.3-0.1-9.1-0.3c-3.8-0.2-28.1-0.8-33.1-1.7
		l0.7-7.4c4,0.1,7.2,0.3,9.8,0.4c2.5,0.1,24.7,0.2,26.5,0.2s3.6,0,5.5,0c3.4,0,6-0.3,8-0.8c2-0.5,3.3-1.5,4.2-3
		c0.8-1.5,1.2-3.7,1.2-6.6c0-2.5-0.3-4.4-0.9-5.8c-0.6-1.4-1.5-2.4-2.7-3.2c-1.3-0.7-2.9-1.4-4.8-1.8l-14.5-4
		c-5.1-1.4-8.7-3.6-10.8-6.8c-2.1-3.2-3.1-7.4-3.1-12.8c0-4.1,0.5-7.3,1.4-9.8c0.9-2.5,2.3-4.4,4.2-5.6c1.9-1.2,4.3-2.1,7.2-2.5
		C264.7,92.6,268.2,92.4,272.2,92.4z"/>
	<path class="st2" d="M358,93.6v8.7h-54.6v-8.7H358z M335.7,93.6v69.9h-10.1V93.6H335.7z"/>
	<path class="st2" d="M393.4,92.7c5.5,0,10,0.6,13.4,1.8c3.4,1.2,5.9,3.2,7.4,6.2c1.6,2.9,2.3,7,2.3,12.3c0,3.7-0.4,6.8-1.3,9.3
		c-0.9,2.5-2.2,4.5-4.1,5.9c-1.9,1.4-4.4,2.3-7.5,2.7v0.5c1.1,0.3,2.3,0.8,3.4,1.6c1.1,0.8,2.2,1.9,3.2,3.3c1,1.4,1.8,3.1,2.2,5.2
		l6.6,22h-10.7l-6.1-21.8c-0.8-2.6-1.9-4.4-3.3-5.5c-1.4-1.1-3.3-1.6-5.6-1.6c-4.3,0-7.9,0-10.9-0.1c-3,0-5.6-0.1-7.7-0.2
		c-2.1-0.1-3.7-0.1-5-0.1l0.3-8.1h23.1c3.3-0.1,5.9-0.5,7.8-1.2c1.9-0.7,3.3-2,4.1-3.8c0.8-1.8,1.3-4.4,1.3-7.7
		c0-3.3-0.4-5.9-1.3-7.7c-0.8-1.8-2.2-3-4.1-3.8c-1.9-0.7-4.5-1.1-7.8-1.1c-5.7,0-10.6,0-14.7,0.1c-4.1,0.1-6.9,0.1-8.3,0.1
		l-1.4-7.7c2.6-0.3,5-0.5,7.3-0.6c2.3-0.1,4.8-0.2,7.5-0.3C386.4,92.7,389.7,92.7,393.4,92.7z M378.8,93.6v69.9h-10V93.6H378.8z"/>
	<path class="st2" d="M445.1,93.5c3.4,0,6.8,0,10.3,0c3.5,0,7,0.1,10.4,0.2c3.4,0.1,6.7,0.3,9.8,0.5l-0.4,7.8h-27.9
		c-2,0-3.5,0.5-4.5,1.5c-0.9,1-1.4,2.6-1.4,4.9v40.5c0,2.2,0.5,3.9,1.4,4.9c0.9,1,2.4,1.6,4.5,1.6h27.9l0.4,7.7
		c-3.1,0.2-6.4,0.3-9.8,0.4c-3.4,0.1-6.9,0.1-10.4,0.2c-3.5,0-7,0.1-10.3,0.1c-4.2,0-7.5-1.1-10-3.4c-2.5-2.3-3.7-5.3-3.8-9.1V106
		c0.1-3.9,1.3-6.9,3.8-9.1C437.6,94.6,440.9,93.5,445.1,93.5z M433.2,122.8h38.1v7.9h-38.1V122.8z"/>
	<path class="st2" d="M517.5,93.6c0.9,0,1.7,0.3,2.3,0.8c0.7,0.5,1.1,1.2,1.4,2l22.1,67.2h-10.5l-17.4-56.2c-0.3-0.9-0.5-1.9-0.8-3
		c-0.3-1-0.5-2-0.8-2.9h-2.8c-0.3,0.9-0.5,1.8-0.8,2.9c-0.3,1-0.6,2-0.9,3l-17.4,56.2h-10.4l22.1-67.2c0.3-0.8,0.7-1.5,1.4-2
		c0.7-0.5,1.5-0.8,2.3-0.8H517.5z M530.1,133.8v8.4h-35.7v-8.4H530.1z"/>
	<path class="st2" d="M619.7,93.6c2.6,0,4,1.4,4.1,4.2l2.8,65.8h-9.9l-2.5-61.7h-2L597.3,152c-0.5,2.2-2,3.3-4.3,3.3h-8.3
		c-2.4,0-3.9-1.1-4.5-3.3l-14.8-50.2h-2l-2.3,61.7h-9.9l2.7-65.8c0.1-2.8,1.5-4.2,4.1-4.2H569c2.2,0,3.6,1.1,4.3,3.3l12.3,41.3
		c0.5,1.6,1,3.1,1.3,4.7c0.3,1.6,0.7,3.2,1.2,4.9h1.7c0.5-1.7,0.9-3.3,1.3-4.9c0.4-1.6,0.8-3.2,1.3-4.9l12.3-41.1
		c0.5-2.2,2-3.3,4.3-3.3H619.7z"/>
	<path class="st2" d="M652.1,93.6v55.1c0,2.2,0.5,3.8,1.6,4.8c1.1,1,2.7,1.6,5,1.6h25l0.5,7.8c-4.5,0.3-9.1,0.5-13.8,0.6
		c-4.7,0.1-9.3,0.1-14,0.1c-5.1,0-8.8-1.3-11-3.8c-2.2-2.5-3.3-5.7-3.3-9.6V93.6H652.1z"/>
	<path class="st2" d="M704.9,93.6v69.9h-10.1V93.6H704.9z"/>
	<path class="st2" d="M776.6,93.6v66c0,2.6-1.3,4-3.8,4h-8.7c-1.2,0-2-0.3-2.7-0.8c-0.6-0.5-1.2-1.3-1.7-2.3l-22.9-47.2
		c-0.6-1.4-1.3-2.9-2.1-4.6c-0.8-1.7-1.4-3.3-1.8-4.8h-1.5c0.1,1.6,0.2,3.1,0.3,4.7c0.1,1.6,0.1,3.2,0.1,4.8v50.3h-9.9v-66
		c0-2.6,1.3-4,3.9-4h8.4c1.1,0,2.1,0.3,2.7,0.8c0.7,0.5,1.2,1.3,1.7,2.3l22.1,46c0.7,1.4,1.5,3,2.4,4.9c0.8,1.8,1.7,3.6,2.5,5.4h1.6
		c-0.1-1.8-0.2-3.6-0.3-5.4c-0.1-1.8-0.1-3.6-0.1-5.3V93.6H776.6z"/>
	<path class="st2" d="M806.8,93.5c3.4,0,26.8,0,30.3,0c3.5,0,7,0.1,10.4,0.2c3.4,0.1,6.7,0.3,9.8,0.5l-0.4,7.8H809
		c-2,0-3.5,0.5-4.5,1.5c-0.9,1-1.4,2.6-1.4,4.9v40.5c0,2.2,0.5,3.9,1.4,4.9c0.9,1,2.4,1.6,4.5,1.6h27.9l0.4,7.7
		c-3.1,0.2-6.4,0.3-9.8,0.4c-3.4,0.1-6.9,0.1-10.4,0.2c-3.5,0-7,0.1-10.3,0.1c-4.2,0-7.5-1.1-10-3.4c-2.5-2.3-3.7-5.3-3.8-9.1V106
		c0.1-3.9,1.3-6.9,3.8-9.1C799.3,94.6,802.6,93.5,806.8,93.5z M794.9,122.8H833v7.9h-38.1V122.8z"/>
</g>
</svg>
