<svg width="257" height="78" viewBox="0 0 257 78" fill="none" xmlns="http://www.w3.org/2000/svg">
<path d="M18.3902 73.0428C21.5632 69.287 25.0599 66.1141 28.6861 63.0706C32.3124 60.0919 36.1329 57.2427 40.0829 54.6526C44.0329 52.0624 48.0476 49.6665 52.2567 47.4649C56.4657 45.328 60.7395 43.2558 65.4665 41.8312L65.6608 42.155L59.8329 46.1698L53.9403 50.1198L42.2198 57.8903L30.4345 65.6608L24.5419 69.546L18.5845 73.3665L18.3902 73.0428Z" fill="#4FA1FF"/>
<path d="M66.5026 36.3919C61.8403 34.773 57.6313 32.7009 53.487 30.4345C49.3427 28.1681 45.3927 25.6427 41.5722 22.923C37.7517 20.2681 33.996 17.3541 30.4345 14.2459C26.873 11.1377 23.441 7.90001 20.3976 4.07951L20.5918 3.75574L26.4197 7.70575L32.1829 11.7205L43.7091 19.75L55.2354 27.8443L60.9985 31.9238L66.6969 36.0033L66.5026 36.3919Z" fill="#4FA1FF"/>
<path d="M14.0517 14.9582C15.4115 18.714 16.1238 22.405 16.6418 26.1607C17.0951 29.9165 17.3541 33.6074 17.3541 37.3632C17.3541 41.1189 17.0951 44.8099 16.6418 48.5657C16.1238 52.3214 15.4115 56.0124 14.0517 59.7682H13.6631L13.5984 54.0698L13.5336 48.5009L13.4689 37.2984L13.5336 26.096L13.5984 20.5271L13.6631 14.9582H14.0517V14.9582Z" fill="#4FA1FF"/>
<path d="M22.9877 63.2649C25.0599 60.2214 27.5853 57.696 30.1107 55.4296C32.7009 53.0985 35.4205 51.0263 38.3345 49.1485C41.1837 47.2706 44.1624 45.5222 47.3353 44.0329C50.5083 42.5435 53.746 41.2485 57.3722 40.4714L57.5665 40.7952L53.3575 43.7091L49.0837 46.5583L40.5361 52.3214L31.9238 57.955L27.5853 60.8042L23.2467 63.5887L22.9877 63.2649Z" fill="#4FA1FF"/>
<path d="M57.6312 36.9747C54.0698 36.1329 50.8321 34.773 47.7239 33.2189C44.6156 31.6648 41.7017 29.8517 38.9173 27.9091C36.1328 25.9664 33.4779 23.7648 30.9525 21.4336C28.4271 19.0377 26.0312 16.5123 24.0238 13.4041L24.2181 13.0804L28.4918 15.9295L32.7009 18.8435L41.1189 24.6714L49.4722 30.6287L53.746 33.6722L57.8903 36.7156L57.6312 36.9747Z" fill="#4FA1FF"/>
<path d="M19.8795 20.9156C21.2394 23.6353 21.9517 26.355 22.4697 29.0746C22.923 31.7943 23.182 34.514 23.182 37.2337C23.182 39.9534 22.923 42.673 22.4697 45.3927C21.9517 48.1124 21.2394 50.8321 19.8795 53.5518H19.491L19.4263 49.4075L19.3615 45.328L19.2968 37.1689L19.3615 29.0099L19.4263 24.9304L19.491 20.8509H19.8795V20.9156Z" fill="#4FA1FF"/>
<path d="M28.8804 52.71C29.6574 50.5083 30.8878 48.8895 32.1828 47.4001C33.4779 45.9755 34.9025 44.7452 36.5214 43.7091C38.0755 42.6731 39.7591 41.8313 41.637 41.1837C43.5148 40.5362 45.4575 40.0829 47.7886 40.2124L47.9829 40.5362L45.6517 42.155L43.3206 43.7739L38.6583 46.9468L33.9312 49.9903L31.5353 51.5444L29.1394 53.0337L28.8804 52.71Z" fill="#4FA1FF"/>
<path d="M47.6591 37.3632C45.328 37.3632 43.3853 36.9099 41.5722 36.2624C39.7591 35.5501 38.0755 34.7083 36.5861 33.6075C35.032 32.5066 33.6722 31.2763 32.3771 29.787C31.1468 28.2976 29.9812 26.614 29.2689 24.4124L29.4632 24.0886L31.7943 25.6427L34.1255 27.2615L38.7878 30.4345L43.3853 33.6722L45.6517 35.2911L47.9181 36.9747L47.6591 37.3632Z" fill="#4FA1FF"/>
<path d="M25.5779 28.2328C26.9377 29.7222 27.65 31.2115 28.1681 32.7009C28.6214 34.1902 28.8804 35.6796 28.8804 37.1689C28.8804 38.6583 28.6214 40.1476 28.1681 41.637C27.65 43.1263 26.9377 44.6157 25.5779 46.105H25.1894L25.1246 43.8386L25.0599 41.5722L24.9951 37.1042L25.0599 32.6361L25.1246 30.3697L25.1894 28.1033H25.5779V28.2328Z" fill="#4FA1FF"/>
<path d="M88.2216 50.8811C86.8945 50.8811 85.7383 50.7303 84.7531 50.4287C83.7678 50.1271 82.9434 49.5842 82.2798 48.8C81.6163 47.9957 81.1236 46.8495 80.8019 45.3616C80.4802 43.8535 80.3193 41.9031 80.3193 39.5103C80.3193 37.2582 80.4802 35.3983 80.8019 33.9304C81.1437 32.4626 81.6464 31.3164 82.31 30.492C82.9936 29.6676 83.8382 29.0945 84.8435 28.7728C85.8489 28.4511 87.0152 28.2902 88.3423 28.2902C89.4683 28.2902 90.6245 28.3807 91.8108 28.5617C93.0173 28.7225 94.0528 28.9236 94.9174 29.1649V31.4572C94.3946 31.3767 93.5702 31.2863 92.4442 31.1857C91.3182 31.0651 90.1318 31.0048 88.8852 31.0048C87.8798 31.0048 87.0252 31.1254 86.3214 31.3667C85.6177 31.5879 85.0446 32.0101 84.6023 32.6335C84.1599 33.2367 83.8382 34.1013 83.6371 35.2274C83.436 36.3333 83.3355 37.771 83.3355 39.5404C83.3355 41.3501 83.426 42.818 83.6069 43.944C83.808 45.07 84.1197 45.9447 84.5419 46.568C84.9642 47.1713 85.5272 47.5935 86.231 47.8348C86.9347 48.056 87.8094 48.1666 88.855 48.1666C90.3631 48.1666 91.5997 48.1264 92.5649 48.0459C93.53 47.9655 94.3142 47.8851 94.9174 47.8046V50.1271C94.0126 50.3483 92.9771 50.5292 91.8108 50.67C90.6647 50.8107 89.4683 50.8811 88.2216 50.8811ZM106.326 50.8811C104.879 50.8811 103.602 50.7504 102.496 50.489C101.41 50.2075 100.495 49.6746 99.7513 48.8905C99.0274 48.1063 98.4845 46.9802 98.1226 45.5124C97.7606 44.0244 97.5797 42.074 97.5797 39.6611C97.5797 37.2482 97.7606 35.2977 98.1226 33.8098C98.5046 32.3017 99.0576 31.1556 99.7814 30.3714C100.525 29.5671 101.44 29.0242 102.526 28.7427C103.632 28.441 104.899 28.2902 106.326 28.2902C107.794 28.2902 109.071 28.441 110.157 28.7427C111.263 29.0242 112.178 29.5671 112.902 30.3714C113.646 31.1556 114.199 32.3017 114.561 33.8098C114.922 35.2977 115.103 37.2482 115.103 39.6611C115.103 42.074 114.912 44.0244 114.53 45.5124C114.168 46.9802 113.626 48.1063 112.902 48.8905C112.178 49.6746 111.263 50.2075 110.157 50.489C109.071 50.7504 107.794 50.8811 106.326 50.8811ZM106.326 48.1666C107.372 48.1666 108.257 48.066 108.981 47.865C109.725 47.6438 110.318 47.2416 110.76 46.6585C111.223 46.0553 111.554 45.1907 111.755 44.0646C111.957 42.9386 112.057 41.4708 112.057 39.6611C112.057 37.771 111.957 36.2528 111.755 35.1067C111.554 33.9405 111.223 33.0658 110.76 32.4827C110.318 31.8995 109.725 31.5074 108.981 31.3064C108.257 31.1053 107.372 31.0048 106.326 31.0048C105.341 31.0048 104.487 31.1053 103.763 31.3064C103.039 31.5074 102.446 31.8995 101.983 32.4827C101.521 33.0658 101.169 33.9405 100.928 35.1067C100.706 36.2528 100.596 37.771 100.596 39.6611C100.596 41.4708 100.686 42.9386 100.867 44.0646C101.068 45.1907 101.39 46.0553 101.832 46.6585C102.275 47.2416 102.858 47.6438 103.582 47.865C104.326 48.066 105.241 48.1666 106.326 48.1666ZM119.279 50.7001V28.4712H121.752L132.64 45.5124V28.4712H135.656V50.7001H133.213L122.325 33.659V50.7001H119.279ZM140.073 50.7001V28.4712H142.547L153.435 45.5124V28.4712H156.451V50.7001H154.008L143.12 33.659V50.7001H140.073ZM165.483 50.8208C164.98 50.8409 164.447 50.8007 163.884 50.7001C163.321 50.6197 162.779 50.4387 162.256 50.1572C161.753 49.8556 161.341 49.4032 161.019 48.8C160.697 48.1967 160.537 47.3723 160.537 46.3267V33.1161C160.537 31.9297 160.768 30.9947 161.23 30.311C161.693 29.6274 162.276 29.1549 162.98 28.8935C163.683 28.612 164.407 28.4712 165.151 28.4712C167.102 28.4913 168.831 28.5315 170.339 28.5918C171.847 28.6522 173.245 28.7125 174.531 28.7728V31.2762H165.966C165.222 31.2762 164.639 31.4672 164.216 31.8493C163.794 32.2313 163.583 32.8345 163.583 33.659V38.2736L173.174 38.4546V40.8072L163.583 41.0183V45.5727C163.583 46.2564 163.693 46.7691 163.915 47.1109C164.156 47.4528 164.458 47.684 164.819 47.8046C165.202 47.9253 165.604 47.9856 166.026 47.9856H174.531V50.489C173.144 50.5895 171.656 50.67 170.068 50.7303C168.479 50.7906 166.951 50.8208 165.483 50.8208ZM185.686 50.8811C184.359 50.8811 183.203 50.7303 182.218 50.4287C181.233 50.1271 180.408 49.5842 179.745 48.8C179.081 47.9957 178.588 46.8495 178.267 45.3616C177.945 43.8535 177.784 41.9031 177.784 39.5103C177.784 37.2582 177.945 35.3983 178.267 33.9304C178.609 32.4626 179.111 31.3164 179.775 30.492C180.458 29.6676 181.303 29.0945 182.308 28.7728C183.314 28.4511 184.48 28.2902 185.807 28.2902C186.933 28.2902 188.089 28.3807 189.276 28.5617C190.482 28.7225 191.518 28.9236 192.382 29.1649V31.4572C191.859 31.3767 191.035 31.2863 189.909 31.1857C188.783 31.0651 187.597 31.0048 186.35 31.0048C185.345 31.0048 184.49 31.1254 183.786 31.3667C183.082 31.5879 182.509 32.0101 182.067 32.6335C181.625 33.2367 181.303 34.1013 181.102 35.2274C180.901 36.3333 180.8 37.771 180.8 39.5404C180.8 41.3501 180.891 42.818 181.072 43.944C181.273 45.07 181.584 45.9447 182.007 46.568C182.429 47.1713 182.992 47.5935 183.696 47.8348C184.4 48.056 185.274 48.1666 186.32 48.1666C187.828 48.1666 189.065 48.1264 190.03 48.0459C190.995 47.9655 191.779 47.8851 192.382 47.8046V50.1271C191.477 50.3483 190.442 50.5292 189.276 50.67C188.13 50.8107 186.933 50.8811 185.686 50.8811ZM200.798 50.7001V31.1857H194.163V28.4712H210.48V31.1857H203.845V50.7001H200.798ZM213.172 50.7001V28.4712H216.218V50.7001H213.172ZM226.716 50.7001L219.297 28.4712H222.433L228.647 47.4729L234.89 28.4712H237.997L230.577 50.7001H226.716ZM245.246 50.8208C244.743 50.8409 244.21 50.8007 243.647 50.7001C243.084 50.6197 242.541 50.4387 242.018 50.1572C241.516 49.8556 241.104 49.4032 240.782 48.8C240.46 48.1967 240.299 47.3723 240.299 46.3267V33.1161C240.299 31.9297 240.53 30.9947 240.993 30.311C241.455 29.6274 242.039 29.1549 242.742 28.8935C243.446 28.612 244.17 28.4712 244.914 28.4712C246.864 28.4913 248.594 28.5315 250.102 28.5918C251.61 28.6522 253.007 28.7125 254.294 28.7728V31.2762H245.728C244.984 31.2762 244.401 31.4672 243.979 31.8493C243.557 32.2313 243.346 32.8345 243.346 33.659V38.2736L252.937 38.4546V40.8072L243.346 41.0183V45.5727C243.346 46.2564 243.456 46.7691 243.677 47.1109C243.919 47.4528 244.22 47.684 244.582 47.8046C244.964 47.9253 245.366 47.9856 245.789 47.9856H254.294V50.489C252.907 50.5895 251.419 50.67 249.83 50.7303C248.242 50.7906 246.714 50.8208 245.246 50.8208Z" fill="white"/>
</svg>
